%TF.GenerationSoftware,KiCad,Pcbnew,9.0.4*%
%TF.CreationDate,2026-05-26T18:32:56-03:00*%
%TF.ProjectId,PCI-104-Template,5043492d-3130-4342-9d54-656d706c6174,A*%
%TF.SameCoordinates,Original*%
%TF.FileFunction,Copper,L2,Inr*%
%TF.FilePolarity,Positive*%
%FSLAX46Y46*%
G04 Gerber Fmt 4.6, Leading zero omitted, Abs format (unit mm)*
G04 Created by KiCad (PCBNEW 9.0.4) date 2026-05-26 18:32:56*
%MOMM*%
%LPD*%
G01*
G04 APERTURE LIST*
%TA.AperFunction,ComponentPad*%
%ADD10C,3.600000*%
%TD*%
%TA.AperFunction,ComponentPad*%
%ADD11O,1.350000X1.350000*%
%TD*%
%TA.AperFunction,ComponentPad*%
%ADD12R,1.350000X1.350000*%
%TD*%
%TA.AperFunction,ViaPad*%
%ADD13C,0.700000*%
%TD*%
G04 APERTURE END LIST*
D10*
%TO.N,GND*%
%TO.C,H4*%
X140725000Y-134430000D03*
%TD*%
%TO.N,GND*%
%TO.C,H2*%
X140725000Y-54420000D03*
%TD*%
D11*
%TO.N,unconnected-(J1-Pin_a1-Pada1)*%
%TO.C,J1*%
X61000000Y-123000000D03*
%TO.N,unconnected-(J1-Pin_a2-Pada2)*%
X61000000Y-121000000D03*
%TO.N,GND*%
X61000000Y-119000000D03*
%TO.N,unconnected-(J1-Pin_a4-Pada4)*%
X61000000Y-117000000D03*
%TO.N,/PWR_IN2*%
X61000000Y-115000000D03*
%TO.N,unconnected-(J1-Pin_a6-Pada6)*%
X61000000Y-113000000D03*
%TO.N,unconnected-(J1-Pin_a7-Pada7)*%
X61000000Y-111000000D03*
%TO.N,unconnected-(J1-Pin_a8-Pada8)*%
X61000000Y-109000000D03*
%TO.N,unconnected-(J1-Pin_a9-Pada9)*%
X61000000Y-107000000D03*
%TO.N,unconnected-(J1-Pin_a10-Pada10)*%
X61000000Y-105000000D03*
%TO.N,unconnected-(J1-Pin_a11-Pada11)*%
X61000000Y-103000000D03*
%TO.N,unconnected-(J1-Pin_a12-Pada12)*%
X61000000Y-101000000D03*
%TO.N,unconnected-(J1-Pin_a13-Pada13)*%
X61000000Y-99000000D03*
%TO.N,unconnected-(J1-Pin_a14-Pada14)*%
X61000000Y-97000000D03*
%TO.N,unconnected-(J1-Pin_a15-Pada15)*%
X61000000Y-95000000D03*
%TO.N,unconnected-(J1-Pin_a16-Pada16)*%
X61000000Y-93000000D03*
%TO.N,unconnected-(J1-Pin_a17-Pada17)*%
X61000000Y-91000000D03*
%TO.N,unconnected-(J1-Pin_a18-Pada18)*%
X61000000Y-89000000D03*
%TO.N,unconnected-(J1-Pin_a19-Pada19)*%
X61000000Y-87000000D03*
%TO.N,unconnected-(J1-Pin_a20-Pada20)*%
X61000000Y-85000000D03*
%TO.N,unconnected-(J1-Pin_a21-Pada21)*%
X61000000Y-83000000D03*
%TO.N,unconnected-(J1-Pin_a22-Pada22)*%
X61000000Y-81000000D03*
%TO.N,unconnected-(J1-Pin_a23-Pada23)*%
X61000000Y-79000000D03*
%TO.N,unconnected-(J1-Pin_a24-Pada24)*%
X61000000Y-77000000D03*
%TO.N,unconnected-(J1-Pin_a25-Pada25)*%
X61000000Y-75000000D03*
%TO.N,GND*%
X61000000Y-73000000D03*
%TO.N,unconnected-(J1-Pin_a27-Pada27)*%
X61000000Y-71000000D03*
%TO.N,/PWR_IN1*%
X61000000Y-69000000D03*
%TO.N,unconnected-(J1-Pin_a29-Pada29)*%
X61000000Y-67000000D03*
%TO.N,unconnected-(J1-Pin_a30-Pada30)*%
X61000000Y-65000000D03*
%TO.N,unconnected-(J1-Pin_b1-Padb1)*%
X59000000Y-123000000D03*
%TO.N,unconnected-(J1-Pin_b2-Padb2)*%
X59000000Y-121000000D03*
%TO.N,unconnected-(J1-Pin_b3-Padb3)*%
X59000000Y-119000000D03*
%TO.N,unconnected-(J1-Pin_b4-Padb4)*%
X59000000Y-117000000D03*
%TO.N,unconnected-(J1-Pin_b5-Padb5)*%
X59000000Y-115000000D03*
%TO.N,unconnected-(J1-Pin_b6-Padb6)*%
X59000000Y-113000000D03*
%TO.N,unconnected-(J1-Pin_b7-Padb7)*%
X59000000Y-111000000D03*
%TO.N,unconnected-(J1-Pin_b8-Padb8)*%
X59000000Y-109000000D03*
%TO.N,unconnected-(J1-Pin_b9-Padb9)*%
X59000000Y-107000000D03*
%TO.N,unconnected-(J1-Pin_b10-Padb10)*%
X59000000Y-105000000D03*
%TO.N,unconnected-(J1-Pin_b11-Padb11)*%
X59000000Y-103000000D03*
%TO.N,unconnected-(J1-Pin_b12-Padb12)*%
X59000000Y-101000000D03*
%TO.N,unconnected-(J1-Pin_b13-Padb13)*%
X59000000Y-99000000D03*
%TO.N,unconnected-(J1-Pin_b14-Padb14)*%
X59000000Y-97000000D03*
%TO.N,unconnected-(J1-Pin_b15-Padb15)*%
X59000000Y-95000000D03*
%TO.N,unconnected-(J1-Pin_b16-Padb16)*%
X59000000Y-93000000D03*
%TO.N,unconnected-(J1-Pin_b17-Padb17)*%
X59000000Y-91000000D03*
%TO.N,unconnected-(J1-Pin_b18-Padb18)*%
X59000000Y-89000000D03*
%TO.N,unconnected-(J1-Pin_b19-Padb19)*%
X59000000Y-87000000D03*
%TO.N,unconnected-(J1-Pin_b20-Padb20)*%
X59000000Y-85000000D03*
%TO.N,unconnected-(J1-Pin_b21-Padb21)*%
X59000000Y-83000000D03*
%TO.N,unconnected-(J1-Pin_b22-Padb22)*%
X59000000Y-81000000D03*
%TO.N,unconnected-(J1-Pin_b23-Padb23)*%
X59000000Y-79000000D03*
%TO.N,unconnected-(J1-Pin_b24-Padb24)*%
X59000000Y-77000000D03*
%TO.N,unconnected-(J1-Pin_b25-Padb25)*%
X59000000Y-75000000D03*
%TO.N,unconnected-(J1-Pin_b26-Padb26)*%
X59000000Y-73000000D03*
%TO.N,unconnected-(J1-Pin_b27-Padb27)*%
X59000000Y-71000000D03*
%TO.N,unconnected-(J1-Pin_b28-Padb28)*%
X59000000Y-69000000D03*
%TO.N,unconnected-(J1-Pin_b29-Padb29)*%
X59000000Y-67000000D03*
%TO.N,unconnected-(J1-Pin_b30-Padb30)*%
X59000000Y-65000000D03*
%TD*%
D10*
%TO.N,GND*%
%TO.C,H1*%
X55000000Y-56960000D03*
%TD*%
%TO.N,GND*%
%TO.C,H3*%
X55000000Y-130620000D03*
%TD*%
D11*
%TO.N,unconnected-(J2-Pin_a1-Padc1)*%
%TO.C,J2*%
X57000000Y-123000000D03*
%TO.N,unconnected-(J2-Pin_a2-Padc2)*%
X57000000Y-121000000D03*
%TO.N,unconnected-(J2-Pin_a3-Padc3)*%
X57000000Y-119000000D03*
%TO.N,unconnected-(J2-Pin_a4-Padc4)*%
X57000000Y-117000000D03*
%TO.N,unconnected-(J2-Pin_a5-Padc5)*%
X57000000Y-115000000D03*
%TO.N,unconnected-(J2-Pin_a6-Padc6)*%
X57000000Y-113000000D03*
%TO.N,unconnected-(J2-Pin_a7-Padc7)*%
X57000000Y-111000000D03*
%TO.N,unconnected-(J2-Pin_a8-Padc8)*%
X57000000Y-109000000D03*
%TO.N,unconnected-(J2-Pin_a9-Padc9)*%
X57000000Y-107000000D03*
%TO.N,unconnected-(J2-Pin_a10-Padc10)*%
X57000000Y-105000000D03*
%TO.N,unconnected-(J2-Pin_a11-Padc11)*%
X57000000Y-103000000D03*
%TO.N,unconnected-(J2-Pin_a12-Padc12)*%
X57000000Y-101000000D03*
%TO.N,unconnected-(J2-Pin_a13-Padc13)*%
X57000000Y-99000000D03*
%TO.N,unconnected-(J2-Pin_a14-Padc14)*%
X57000000Y-97000000D03*
%TO.N,unconnected-(J2-Pin_a15-Padc15)*%
X57000000Y-95000000D03*
%TO.N,unconnected-(J2-Pin_a16-Padc16)*%
X57000000Y-93000000D03*
%TO.N,unconnected-(J2-Pin_a17-Padc17)*%
X57000000Y-91000000D03*
%TO.N,unconnected-(J2-Pin_a18-Padc18)*%
X57000000Y-89000000D03*
%TO.N,unconnected-(J2-Pin_a19-Padc19)*%
X57000000Y-87000000D03*
%TO.N,unconnected-(J2-Pin_a20-Padc20)*%
X57000000Y-85000000D03*
%TO.N,unconnected-(J2-Pin_a21-Padc21)*%
X57000000Y-83000000D03*
%TO.N,unconnected-(J2-Pin_a22-Padc22)*%
X57000000Y-81000000D03*
%TO.N,unconnected-(J2-Pin_a23-Padc23)*%
X57000000Y-79000000D03*
%TO.N,unconnected-(J2-Pin_a24-Padc24)*%
X57000000Y-77000000D03*
%TO.N,unconnected-(J2-Pin_a25-Padc25)*%
X57000000Y-75000000D03*
%TO.N,unconnected-(J2-Pin_a26-Padc26)*%
X57000000Y-73000000D03*
%TO.N,unconnected-(J2-Pin_a27-Padc27)*%
X57000000Y-71000000D03*
%TO.N,unconnected-(J2-Pin_a28-Padc28)*%
X57000000Y-69000000D03*
%TO.N,unconnected-(J2-Pin_a29-Padc29)*%
X57000000Y-67000000D03*
%TO.N,unconnected-(J2-Pin_a30-Padc30)*%
X57000000Y-65000000D03*
D12*
%TO.N,unconnected-(J2-Pin_b1-Padd1)*%
X55000000Y-123000000D03*
D11*
%TO.N,unconnected-(J2-Pin_b2-Padd2)*%
X55000000Y-121000000D03*
%TO.N,unconnected-(J2-Pin_b3-Padd3)*%
X55000000Y-119000000D03*
%TO.N,unconnected-(J2-Pin_b4-Padd4)*%
X55000000Y-117000000D03*
%TO.N,unconnected-(J2-Pin_b5-Padd5)*%
X55000000Y-115000000D03*
%TO.N,unconnected-(J2-Pin_b6-Padd6)*%
X55000000Y-113000000D03*
%TO.N,unconnected-(J2-Pin_b7-Padd7)*%
X55000000Y-111000000D03*
%TO.N,unconnected-(J2-Pin_b8-Padd8)*%
X55000000Y-109000000D03*
%TO.N,unconnected-(J2-Pin_b9-Padd9)*%
X55000000Y-107000000D03*
%TO.N,unconnected-(J2-Pin_b10-Padd10)*%
X55000000Y-105000000D03*
%TO.N,unconnected-(J2-Pin_b11-Padd11)*%
X55000000Y-103000000D03*
%TO.N,unconnected-(J2-Pin_b12-Padd12)*%
X55000000Y-101000000D03*
%TO.N,unconnected-(J2-Pin_b13-Padd13)*%
X55000000Y-99000000D03*
%TO.N,unconnected-(J2-Pin_b14-Padd14)*%
X55000000Y-97000000D03*
%TO.N,unconnected-(J2-Pin_b15-Padd15)*%
X55000000Y-95000000D03*
%TO.N,unconnected-(J2-Pin_b16-Padd16)*%
X55000000Y-93000000D03*
%TO.N,unconnected-(J2-Pin_b17-Padd17)*%
X55000000Y-91000000D03*
%TO.N,unconnected-(J2-Pin_b18-Padd18)*%
X55000000Y-89000000D03*
%TO.N,unconnected-(J2-Pin_b19-Padd19)*%
X55000000Y-87000000D03*
%TO.N,unconnected-(J2-Pin_b20-Padd20)*%
X55000000Y-85000000D03*
%TO.N,unconnected-(J2-Pin_b21-Padd21)*%
X55000000Y-83000000D03*
%TO.N,unconnected-(J2-Pin_b22-Padd22)*%
X55000000Y-81000000D03*
%TO.N,unconnected-(J2-Pin_b23-Padd23)*%
X55000000Y-79000000D03*
%TO.N,unconnected-(J2-Pin_b24-Padd24)*%
X55000000Y-77000000D03*
%TO.N,unconnected-(J2-Pin_b25-Padd25)*%
X55000000Y-75000000D03*
%TO.N,unconnected-(J2-Pin_b26-Padd26)*%
X55000000Y-73000000D03*
%TO.N,unconnected-(J2-Pin_b27-Padd27)*%
X55000000Y-71000000D03*
%TO.N,unconnected-(J2-Pin_b28-Padd28)*%
X55000000Y-69000000D03*
%TO.N,unconnected-(J2-Pin_b29-Padd29)*%
X55000000Y-67000000D03*
%TO.N,unconnected-(J2-Pin_b30-Padd30)*%
X55000000Y-65000000D03*
%TD*%
D13*
%TO.N,GND*%
X69850000Y-136702800D03*
X74930000Y-131622800D03*
X69850000Y-131622800D03*
X69850000Y-134162800D03*
X74930000Y-136702800D03*
X74930000Y-134162800D03*
X64516000Y-136702800D03*
X64516000Y-131622800D03*
X74930000Y-129082800D03*
X64516000Y-129082800D03*
X64516000Y-134162800D03*
X69850000Y-129082800D03*
X84277200Y-136702800D03*
X89357200Y-131622800D03*
X84277200Y-131622800D03*
X84277200Y-134162800D03*
X89357200Y-136702800D03*
X89357200Y-134162800D03*
X78943200Y-136702800D03*
X78943200Y-131622800D03*
X89357200Y-129082800D03*
X78943200Y-129082800D03*
X78943200Y-134162800D03*
X84277200Y-129082800D03*
X125984000Y-96520000D03*
X64008000Y-81534000D03*
X96266000Y-58928000D03*
X75184000Y-63500000D03*
X70104000Y-55880000D03*
X80988000Y-101854000D03*
X70104000Y-58420000D03*
X93472000Y-102362000D03*
X111506000Y-105664000D03*
X114808000Y-99568000D03*
X63246000Y-103378000D03*
X97790000Y-100076000D03*
X98552000Y-87884000D03*
X129794000Y-99568000D03*
X87122000Y-79248000D03*
X98552000Y-90424000D03*
X100330000Y-61214000D03*
X69088000Y-114554000D03*
X75184000Y-58420000D03*
X64008000Y-86614000D03*
X102108000Y-90805000D03*
X65024000Y-63500000D03*
X96266000Y-57658000D03*
X109982000Y-79248000D03*
X131826000Y-105664000D03*
X97790000Y-99060000D03*
X129794000Y-75692000D03*
X117348000Y-96520000D03*
X124714000Y-88138000D03*
X108966000Y-105664000D03*
X124714000Y-55372000D03*
X79718000Y-100076000D03*
X96520000Y-123444000D03*
X102489000Y-99695000D03*
X79718000Y-101854000D03*
X80988000Y-99314000D03*
X105029000Y-100076000D03*
X133477000Y-99568000D03*
X134874000Y-68072000D03*
X138557000Y-99568000D03*
X70358000Y-108204000D03*
X70104000Y-60960000D03*
X124714000Y-70612000D03*
X70104000Y-70612000D03*
X68834000Y-71882000D03*
X106299000Y-100076000D03*
X99822000Y-56388000D03*
X75184000Y-60960000D03*
X108839000Y-95250000D03*
X132207000Y-96520000D03*
X121158000Y-96520000D03*
X69088000Y-81534000D03*
X98552000Y-86614000D03*
X123571000Y-99568000D03*
X75184000Y-55880000D03*
X119888000Y-99568000D03*
X96266000Y-55118000D03*
X82042000Y-81788000D03*
X76962000Y-84328000D03*
X137287000Y-99568000D03*
X98552000Y-92964000D03*
X96520000Y-113284000D03*
X95250000Y-96520000D03*
X76962000Y-81788000D03*
X129794000Y-96520000D03*
X114554000Y-79248000D03*
X139446000Y-105664000D03*
X129794000Y-85598000D03*
X134874000Y-90678000D03*
X129794000Y-65532000D03*
X98552000Y-78994000D03*
X139700000Y-70612000D03*
X95250000Y-97790000D03*
X129794000Y-73152000D03*
X63246000Y-96266000D03*
X127254000Y-96520000D03*
X111379000Y-95250000D03*
X117348000Y-99568000D03*
X129794000Y-78232000D03*
X102108000Y-78613000D03*
X114554000Y-82804000D03*
X98552000Y-74930000D03*
X69088000Y-108204000D03*
X85598000Y-55880000D03*
X63246000Y-98806000D03*
X114554000Y-68072000D03*
X133477000Y-96520000D03*
X129794000Y-88138000D03*
X124714000Y-65532000D03*
X126746000Y-105664000D03*
X69088000Y-86614000D03*
X82042000Y-84328000D03*
X100330000Y-101346000D03*
X122301000Y-96520000D03*
X118618000Y-96520000D03*
X139700000Y-68072000D03*
X97790000Y-61214000D03*
X80518000Y-58420000D03*
X104140000Y-105664000D03*
X139700000Y-65532000D03*
X136906000Y-105664000D03*
X124714000Y-85598000D03*
X95250000Y-95250000D03*
X134747000Y-99568000D03*
X65786000Y-103378000D03*
X96520000Y-108204000D03*
X134874000Y-78232000D03*
X112522000Y-100076000D03*
X69088000Y-106934000D03*
X102108000Y-65786000D03*
X134747000Y-96520000D03*
X102108000Y-79883000D03*
X90932000Y-98806000D03*
X98552000Y-82804000D03*
X82258000Y-101092000D03*
X96520000Y-129032000D03*
X99822000Y-58928000D03*
X112268000Y-76454000D03*
X98298000Y-67310000D03*
X109982000Y-74930000D03*
X103759000Y-96139000D03*
X134874000Y-62992000D03*
X134874000Y-70612000D03*
X104140000Y-81788000D03*
X113792000Y-100076000D03*
X97790000Y-97790000D03*
X98552000Y-89154000D03*
X98298000Y-64770000D03*
X139700000Y-88138000D03*
X102108000Y-84328000D03*
X65024000Y-55880000D03*
X98552000Y-94234000D03*
X134874000Y-73152000D03*
X122301000Y-99568000D03*
X102108000Y-89789000D03*
X80518000Y-60960000D03*
X64008000Y-78994000D03*
X139700000Y-73152000D03*
X103759000Y-99695000D03*
X105029000Y-95250000D03*
X119126000Y-105664000D03*
X102108000Y-94234000D03*
X102108000Y-87630000D03*
X80518000Y-55880000D03*
X79718000Y-101092000D03*
X68326000Y-103378000D03*
X129794000Y-93218000D03*
X112268000Y-68072000D03*
X90932000Y-102362000D03*
X129794000Y-55372000D03*
X106299000Y-95250000D03*
X63246000Y-101346000D03*
X99060000Y-100076000D03*
X96520000Y-110744000D03*
X69088000Y-109474000D03*
X68834000Y-70612000D03*
X92202000Y-102362000D03*
X69088000Y-84074000D03*
X124714000Y-80772000D03*
X118618000Y-99568000D03*
X124714000Y-75692000D03*
X102108000Y-70993000D03*
X87122000Y-86868000D03*
X128524000Y-99568000D03*
X124714000Y-96520000D03*
X95250000Y-99060000D03*
X87122000Y-81788000D03*
X98552000Y-80264000D03*
X82258000Y-100076000D03*
X96520000Y-96520000D03*
X136017000Y-99568000D03*
X134874000Y-83312000D03*
X85598000Y-58420000D03*
X138557000Y-96520000D03*
X104394000Y-71628000D03*
X65024000Y-60960000D03*
X124714000Y-93218000D03*
X124714000Y-68072000D03*
X124714000Y-83312000D03*
X96520000Y-134112000D03*
X134874000Y-93218000D03*
X82042000Y-79248000D03*
X102108000Y-72263000D03*
X139700000Y-80772000D03*
X102108000Y-74803000D03*
X124714000Y-90678000D03*
X98298000Y-66040000D03*
X102108000Y-81153000D03*
X129794000Y-68072000D03*
X76962000Y-79248000D03*
X82258000Y-101854000D03*
X129794000Y-83312000D03*
X136017000Y-96520000D03*
X121158000Y-99568000D03*
X69088000Y-78994000D03*
X134366000Y-105664000D03*
X111379000Y-100076000D03*
X76962000Y-86868000D03*
X124714000Y-57912000D03*
X141986000Y-105664000D03*
X114554000Y-74930000D03*
X131064000Y-96520000D03*
X102108000Y-92964000D03*
X102108000Y-64516000D03*
X99060000Y-61214000D03*
X102108000Y-86360000D03*
X97790000Y-95250000D03*
X119888000Y-96520000D03*
X139827000Y-99568000D03*
X113792000Y-95250000D03*
X80988000Y-101092000D03*
X134874000Y-55372000D03*
X96520000Y-136906000D03*
X137287000Y-96520000D03*
X93472000Y-98806000D03*
X109982000Y-71882000D03*
X107569000Y-100076000D03*
X96520000Y-118618000D03*
X139700000Y-78232000D03*
X139700000Y-85852000D03*
X124714000Y-60452000D03*
X139827000Y-96520000D03*
X97790000Y-101346000D03*
X96520000Y-120904000D03*
X96520000Y-99060000D03*
X139700000Y-90678000D03*
X131064000Y-99568000D03*
X101600000Y-105664000D03*
X129794000Y-70612000D03*
X96520000Y-105664000D03*
X66040000Y-71628000D03*
X99060000Y-105664000D03*
X98298000Y-63500000D03*
X98552000Y-85344000D03*
X98552000Y-81534000D03*
X98552000Y-73660000D03*
X134874000Y-65532000D03*
X125984000Y-99568000D03*
X112268000Y-84074000D03*
X144526000Y-105664000D03*
X80518000Y-63500000D03*
X128524000Y-96520000D03*
X97790000Y-96520000D03*
X69088000Y-115824000D03*
X114808000Y-96520000D03*
X129794000Y-57912000D03*
X98552000Y-91694000D03*
X110109000Y-95250000D03*
X124206000Y-105664000D03*
X134874000Y-88138000D03*
X98552000Y-77724000D03*
X82042000Y-86868000D03*
X107569000Y-95250000D03*
X139700000Y-75692000D03*
X129794000Y-60452000D03*
X66548000Y-114554000D03*
X114554000Y-71882000D03*
X116078000Y-96520000D03*
X102108000Y-63246000D03*
X134874000Y-60452000D03*
X96520000Y-95250000D03*
X102108000Y-73533000D03*
X80988000Y-100076000D03*
X102108000Y-82423000D03*
X69088000Y-113284000D03*
X68834000Y-69342000D03*
X87122000Y-84328000D03*
X98552000Y-72390000D03*
X66294000Y-108204000D03*
X109728000Y-82804000D03*
X127254000Y-99568000D03*
X129794000Y-62992000D03*
X129794000Y-90678000D03*
X96266000Y-56388000D03*
X96520000Y-97790000D03*
X107442000Y-71882000D03*
X96520000Y-131826000D03*
X64008000Y-84074000D03*
X65024000Y-58420000D03*
X110109000Y-100076000D03*
X99822000Y-57658000D03*
X70104000Y-63500000D03*
X99060000Y-101346000D03*
X134874000Y-75692000D03*
X124714000Y-99568000D03*
X102489000Y-96139000D03*
X104394000Y-74168000D03*
X134874000Y-57912000D03*
X134874000Y-85598000D03*
X85598000Y-60960000D03*
X116586000Y-105664000D03*
X82258000Y-99314000D03*
X98552000Y-71120000D03*
X100330000Y-100076000D03*
X123571000Y-96520000D03*
X124714000Y-78232000D03*
X129286000Y-105664000D03*
X129794000Y-80772000D03*
X79718000Y-99314000D03*
X132207000Y-99568000D03*
X66040000Y-70612000D03*
X63246000Y-93726000D03*
X99822000Y-55118000D03*
X121666000Y-105664000D03*
X96520000Y-125984000D03*
X114046000Y-105664000D03*
X85598000Y-63500000D03*
X124714000Y-62992000D03*
X108839000Y-100076000D03*
X134874000Y-80772000D03*
X112522000Y-95250000D03*
X102108000Y-67056000D03*
X106426000Y-105664000D03*
X116078000Y-99568000D03*
X124714000Y-73152000D03*
X139700000Y-83312000D03*
X109982000Y-68072000D03*
X92202000Y-98806000D03*
%TO.N,/5V_LNA*%
X116078000Y-87757000D03*
X112014000Y-61722000D03*
X90678000Y-68072000D03*
X74930000Y-71628000D03*
%TO.N,/5V*%
X102870000Y-113538000D03*
X74549000Y-115570000D03*
%TO.N,/3V3P*%
X84074000Y-103759000D03*
X81584800Y-104902000D03*
X76708000Y-103505000D03*
X86868000Y-95123000D03*
X86995000Y-104902000D03*
X73152000Y-106426000D03*
X83439000Y-97028000D03*
X74523600Y-99252000D03*
X69469000Y-98933000D03*
%TO.N,/LNA_ENABLE*%
X70612000Y-122555000D03*
X70612000Y-75438000D03*
%TO.N,Net-(U1-VTUNE)*%
X86868000Y-112014000D03*
X81088000Y-96901000D03*
%TO.N,/DATA*%
X98044000Y-127508000D03*
X77597000Y-109220000D03*
%TO.N,/LE*%
X77597000Y-111379000D03*
X86106000Y-119888000D03*
%TO.N,/CLK*%
X97917000Y-122428000D03*
X77533000Y-106883200D03*
%TO.N,/PLL_ENABLE*%
X89916000Y-117348000D03*
X126619000Y-119888000D03*
%TD*%
%TA.AperFunction,Conductor*%
%TO.N,GND*%
G36*
X143813864Y-49641134D02*
G01*
X143827680Y-49642122D01*
X144029113Y-49656528D01*
X144064261Y-49661582D01*
X144266408Y-49705557D01*
X144300477Y-49715560D01*
X144494319Y-49787859D01*
X144526620Y-49802610D01*
X144708195Y-49901758D01*
X144738073Y-49920960D01*
X144903676Y-50044929D01*
X144930526Y-50068194D01*
X145076805Y-50214473D01*
X145100070Y-50241323D01*
X145214452Y-50394120D01*
X145224036Y-50406922D01*
X145243243Y-50436808D01*
X145342385Y-50618371D01*
X145357144Y-50650689D01*
X145429436Y-50844514D01*
X145439444Y-50878600D01*
X145483415Y-51080728D01*
X145488472Y-51115895D01*
X145503866Y-51331135D01*
X145504500Y-51348898D01*
X145504500Y-137501101D01*
X145503866Y-137518863D01*
X145503866Y-137518864D01*
X145488472Y-137734104D01*
X145483415Y-137769271D01*
X145439444Y-137971399D01*
X145429436Y-138005485D01*
X145357144Y-138199310D01*
X145342385Y-138231628D01*
X145243243Y-138413191D01*
X145224036Y-138443077D01*
X145100070Y-138608676D01*
X145076805Y-138635526D01*
X144930526Y-138781805D01*
X144903676Y-138805070D01*
X144738077Y-138929036D01*
X144708191Y-138948243D01*
X144526628Y-139047385D01*
X144494310Y-139062144D01*
X144300485Y-139134436D01*
X144266399Y-139144444D01*
X144064271Y-139188415D01*
X144029104Y-139193472D01*
X143813865Y-139208866D01*
X143796102Y-139209500D01*
X51928898Y-139209500D01*
X51911135Y-139208866D01*
X51695895Y-139193472D01*
X51660728Y-139188415D01*
X51458600Y-139144444D01*
X51424514Y-139134436D01*
X51230689Y-139062144D01*
X51198371Y-139047385D01*
X51016808Y-138948243D01*
X50986922Y-138929036D01*
X50821323Y-138805070D01*
X50794473Y-138781805D01*
X50648194Y-138635526D01*
X50624929Y-138608676D01*
X50500960Y-138443073D01*
X50481756Y-138413191D01*
X50382610Y-138231620D01*
X50367859Y-138199319D01*
X50295560Y-138005477D01*
X50285557Y-137971408D01*
X50241582Y-137769261D01*
X50236528Y-137734113D01*
X50221134Y-137518863D01*
X50220500Y-137501101D01*
X50220500Y-127435524D01*
X97493500Y-127435524D01*
X97493500Y-127580475D01*
X97531015Y-127720482D01*
X97531017Y-127720487D01*
X97603488Y-127846011D01*
X97603489Y-127846012D01*
X97603491Y-127846015D01*
X97705985Y-127948509D01*
X97831515Y-128020984D01*
X97971525Y-128058500D01*
X98116474Y-128058500D01*
X98116475Y-128058500D01*
X98256485Y-128020984D01*
X98382015Y-127948509D01*
X98484509Y-127846015D01*
X98556984Y-127720485D01*
X98594500Y-127580475D01*
X98594500Y-127435525D01*
X98556984Y-127295515D01*
X98484509Y-127169985D01*
X98382015Y-127067491D01*
X98382012Y-127067489D01*
X98382011Y-127067488D01*
X98256487Y-126995017D01*
X98256482Y-126995015D01*
X98116475Y-126957500D01*
X97971525Y-126957500D01*
X97831517Y-126995015D01*
X97831512Y-126995017D01*
X97705988Y-127067488D01*
X97603488Y-127169988D01*
X97531017Y-127295512D01*
X97531015Y-127295517D01*
X97493500Y-127435524D01*
X50220500Y-127435524D01*
X50220500Y-64913771D01*
X54124500Y-64913771D01*
X54124500Y-65086229D01*
X54158145Y-65255374D01*
X54158146Y-65255377D01*
X54224139Y-65414700D01*
X54224142Y-65414705D01*
X54319955Y-65558099D01*
X54441901Y-65680045D01*
X54585295Y-65775858D01*
X54585298Y-65775859D01*
X54593798Y-65780403D01*
X54668899Y-65842039D01*
X54714696Y-65927722D01*
X54724218Y-66024410D01*
X54696014Y-66117381D01*
X54634378Y-66192482D01*
X54593798Y-66219597D01*
X54585294Y-66224142D01*
X54441904Y-66319952D01*
X54319952Y-66441904D01*
X54224142Y-66585294D01*
X54224139Y-66585299D01*
X54158146Y-66744622D01*
X54158145Y-66744625D01*
X54158145Y-66744626D01*
X54124500Y-66913771D01*
X54124500Y-67086229D01*
X54158145Y-67255374D01*
X54158146Y-67255377D01*
X54224139Y-67414700D01*
X54224142Y-67414705D01*
X54319955Y-67558099D01*
X54441901Y-67680045D01*
X54585295Y-67775858D01*
X54585298Y-67775859D01*
X54593798Y-67780403D01*
X54668899Y-67842039D01*
X54714696Y-67927722D01*
X54724218Y-68024410D01*
X54696014Y-68117381D01*
X54634378Y-68192482D01*
X54593798Y-68219597D01*
X54585294Y-68224142D01*
X54441904Y-68319952D01*
X54319952Y-68441904D01*
X54224142Y-68585294D01*
X54224139Y-68585299D01*
X54158146Y-68744622D01*
X54158145Y-68744625D01*
X54158145Y-68744626D01*
X54124500Y-68913771D01*
X54124500Y-69086229D01*
X54158145Y-69255374D01*
X54158146Y-69255377D01*
X54224139Y-69414700D01*
X54224142Y-69414705D01*
X54319955Y-69558099D01*
X54441901Y-69680045D01*
X54585295Y-69775858D01*
X54585298Y-69775859D01*
X54593798Y-69780403D01*
X54668899Y-69842039D01*
X54714696Y-69927722D01*
X54724218Y-70024410D01*
X54696014Y-70117381D01*
X54634378Y-70192482D01*
X54593798Y-70219597D01*
X54585294Y-70224142D01*
X54441904Y-70319952D01*
X54319952Y-70441904D01*
X54224142Y-70585294D01*
X54224139Y-70585299D01*
X54158146Y-70744622D01*
X54158145Y-70744625D01*
X54158145Y-70744626D01*
X54124500Y-70913771D01*
X54124500Y-71086229D01*
X54158145Y-71255374D01*
X54158146Y-71255377D01*
X54224139Y-71414700D01*
X54224141Y-71414703D01*
X54224142Y-71414705D01*
X54319955Y-71558099D01*
X54441901Y-71680045D01*
X54585295Y-71775858D01*
X54585298Y-71775859D01*
X54593798Y-71780403D01*
X54668899Y-71842039D01*
X54714696Y-71927722D01*
X54724218Y-72024410D01*
X54696014Y-72117381D01*
X54634378Y-72192482D01*
X54593798Y-72219597D01*
X54585294Y-72224142D01*
X54441904Y-72319952D01*
X54319952Y-72441904D01*
X54224142Y-72585294D01*
X54224139Y-72585299D01*
X54158146Y-72744622D01*
X54158145Y-72744625D01*
X54158145Y-72744626D01*
X54124500Y-72913771D01*
X54124500Y-73086229D01*
X54158145Y-73255374D01*
X54158146Y-73255377D01*
X54224139Y-73414700D01*
X54224142Y-73414705D01*
X54319955Y-73558099D01*
X54441901Y-73680045D01*
X54585295Y-73775858D01*
X54585298Y-73775859D01*
X54593798Y-73780403D01*
X54668899Y-73842039D01*
X54714696Y-73927722D01*
X54724218Y-74024410D01*
X54696014Y-74117381D01*
X54634378Y-74192482D01*
X54593798Y-74219597D01*
X54585294Y-74224142D01*
X54441904Y-74319952D01*
X54319952Y-74441904D01*
X54224142Y-74585294D01*
X54224139Y-74585299D01*
X54158146Y-74744622D01*
X54158145Y-74744625D01*
X54158145Y-74744626D01*
X54124500Y-74913771D01*
X54124500Y-75086229D01*
X54158145Y-75255374D01*
X54158146Y-75255377D01*
X54224139Y-75414700D01*
X54224142Y-75414705D01*
X54288133Y-75510475D01*
X54319955Y-75558099D01*
X54441901Y-75680045D01*
X54585295Y-75775858D01*
X54585298Y-75775859D01*
X54593798Y-75780403D01*
X54668899Y-75842039D01*
X54714696Y-75927722D01*
X54724218Y-76024410D01*
X54696014Y-76117381D01*
X54634378Y-76192482D01*
X54593798Y-76219597D01*
X54585294Y-76224142D01*
X54441904Y-76319952D01*
X54319952Y-76441904D01*
X54224142Y-76585294D01*
X54224139Y-76585299D01*
X54158146Y-76744622D01*
X54158145Y-76744625D01*
X54158145Y-76744626D01*
X54124500Y-76913771D01*
X54124500Y-77086229D01*
X54158145Y-77255374D01*
X54158146Y-77255377D01*
X54224139Y-77414700D01*
X54224142Y-77414705D01*
X54319955Y-77558099D01*
X54441901Y-77680045D01*
X54585295Y-77775858D01*
X54585298Y-77775859D01*
X54593798Y-77780403D01*
X54668899Y-77842039D01*
X54714696Y-77927722D01*
X54724218Y-78024410D01*
X54696014Y-78117381D01*
X54634378Y-78192482D01*
X54593798Y-78219597D01*
X54585294Y-78224142D01*
X54441904Y-78319952D01*
X54319952Y-78441904D01*
X54224142Y-78585294D01*
X54224139Y-78585299D01*
X54158146Y-78744622D01*
X54158145Y-78744625D01*
X54158145Y-78744626D01*
X54124500Y-78913771D01*
X54124500Y-79086229D01*
X54158145Y-79255374D01*
X54158146Y-79255377D01*
X54224139Y-79414700D01*
X54224142Y-79414705D01*
X54319955Y-79558099D01*
X54441901Y-79680045D01*
X54585295Y-79775858D01*
X54585298Y-79775859D01*
X54593798Y-79780403D01*
X54668899Y-79842039D01*
X54714696Y-79927722D01*
X54724218Y-80024410D01*
X54696014Y-80117381D01*
X54634378Y-80192482D01*
X54593798Y-80219597D01*
X54585294Y-80224142D01*
X54441904Y-80319952D01*
X54319952Y-80441904D01*
X54224142Y-80585294D01*
X54224139Y-80585299D01*
X54158146Y-80744622D01*
X54158145Y-80744625D01*
X54158145Y-80744626D01*
X54124500Y-80913771D01*
X54124500Y-81086229D01*
X54158145Y-81255374D01*
X54158146Y-81255377D01*
X54224139Y-81414700D01*
X54224142Y-81414705D01*
X54319955Y-81558099D01*
X54441901Y-81680045D01*
X54585295Y-81775858D01*
X54585298Y-81775859D01*
X54593798Y-81780403D01*
X54668899Y-81842039D01*
X54714696Y-81927722D01*
X54724218Y-82024410D01*
X54696014Y-82117381D01*
X54634378Y-82192482D01*
X54593798Y-82219597D01*
X54585294Y-82224142D01*
X54441904Y-82319952D01*
X54319952Y-82441904D01*
X54224142Y-82585294D01*
X54224139Y-82585299D01*
X54158146Y-82744622D01*
X54158145Y-82744625D01*
X54158145Y-82744626D01*
X54124500Y-82913771D01*
X54124500Y-83086229D01*
X54158145Y-83255374D01*
X54158146Y-83255377D01*
X54224139Y-83414700D01*
X54224142Y-83414705D01*
X54319955Y-83558099D01*
X54441901Y-83680045D01*
X54585295Y-83775858D01*
X54585298Y-83775859D01*
X54593798Y-83780403D01*
X54668899Y-83842039D01*
X54714696Y-83927722D01*
X54724218Y-84024410D01*
X54696014Y-84117381D01*
X54634378Y-84192482D01*
X54593798Y-84219597D01*
X54585294Y-84224142D01*
X54441904Y-84319952D01*
X54319952Y-84441904D01*
X54224142Y-84585294D01*
X54224139Y-84585299D01*
X54158146Y-84744622D01*
X54158145Y-84744625D01*
X54158145Y-84744626D01*
X54124500Y-84913771D01*
X54124500Y-85086229D01*
X54158145Y-85255374D01*
X54158146Y-85255377D01*
X54224139Y-85414700D01*
X54224142Y-85414705D01*
X54319955Y-85558099D01*
X54441901Y-85680045D01*
X54585295Y-85775858D01*
X54585298Y-85775859D01*
X54593798Y-85780403D01*
X54668899Y-85842039D01*
X54714696Y-85927722D01*
X54724218Y-86024410D01*
X54696014Y-86117381D01*
X54634378Y-86192482D01*
X54593798Y-86219597D01*
X54585294Y-86224142D01*
X54441904Y-86319952D01*
X54319952Y-86441904D01*
X54224142Y-86585294D01*
X54224139Y-86585299D01*
X54158146Y-86744622D01*
X54158145Y-86744625D01*
X54158145Y-86744626D01*
X54124500Y-86913771D01*
X54124500Y-87086229D01*
X54155886Y-87244015D01*
X54158146Y-87255377D01*
X54224139Y-87414700D01*
X54224142Y-87414705D01*
X54310879Y-87544517D01*
X54319955Y-87558099D01*
X54441901Y-87680045D01*
X54585295Y-87775858D01*
X54585298Y-87775859D01*
X54593798Y-87780403D01*
X54668899Y-87842039D01*
X54714696Y-87927722D01*
X54724218Y-88024410D01*
X54696014Y-88117381D01*
X54634378Y-88192482D01*
X54593798Y-88219597D01*
X54585294Y-88224142D01*
X54441904Y-88319952D01*
X54319952Y-88441904D01*
X54224142Y-88585294D01*
X54224139Y-88585299D01*
X54158146Y-88744622D01*
X54158145Y-88744625D01*
X54158145Y-88744626D01*
X54124500Y-88913771D01*
X54124500Y-89086229D01*
X54158145Y-89255374D01*
X54158146Y-89255377D01*
X54224139Y-89414700D01*
X54224142Y-89414705D01*
X54319955Y-89558099D01*
X54441901Y-89680045D01*
X54585295Y-89775858D01*
X54585298Y-89775859D01*
X54593798Y-89780403D01*
X54668899Y-89842039D01*
X54714696Y-89927722D01*
X54724218Y-90024410D01*
X54696014Y-90117381D01*
X54634378Y-90192482D01*
X54593798Y-90219597D01*
X54585294Y-90224142D01*
X54441904Y-90319952D01*
X54319952Y-90441904D01*
X54224142Y-90585294D01*
X54224139Y-90585299D01*
X54158146Y-90744622D01*
X54158145Y-90744625D01*
X54158145Y-90744626D01*
X54124500Y-90913771D01*
X54124500Y-91086229D01*
X54158145Y-91255374D01*
X54158146Y-91255377D01*
X54224139Y-91414700D01*
X54224142Y-91414705D01*
X54319955Y-91558099D01*
X54441901Y-91680045D01*
X54585295Y-91775858D01*
X54585298Y-91775859D01*
X54593798Y-91780403D01*
X54668899Y-91842039D01*
X54714696Y-91927722D01*
X54724218Y-92024410D01*
X54696014Y-92117381D01*
X54634378Y-92192482D01*
X54593798Y-92219597D01*
X54585294Y-92224142D01*
X54441904Y-92319952D01*
X54319952Y-92441904D01*
X54224142Y-92585294D01*
X54224139Y-92585299D01*
X54158146Y-92744622D01*
X54158145Y-92744625D01*
X54158145Y-92744626D01*
X54124500Y-92913771D01*
X54124500Y-93086229D01*
X54158145Y-93255374D01*
X54158146Y-93255377D01*
X54224139Y-93414700D01*
X54224142Y-93414705D01*
X54319955Y-93558099D01*
X54441901Y-93680045D01*
X54585295Y-93775858D01*
X54585298Y-93775859D01*
X54593798Y-93780403D01*
X54668899Y-93842039D01*
X54714696Y-93927722D01*
X54724218Y-94024410D01*
X54696014Y-94117381D01*
X54634378Y-94192482D01*
X54593798Y-94219597D01*
X54585294Y-94224142D01*
X54441904Y-94319952D01*
X54319952Y-94441904D01*
X54224142Y-94585294D01*
X54224139Y-94585299D01*
X54158146Y-94744622D01*
X54158145Y-94744625D01*
X54158145Y-94744626D01*
X54124500Y-94913771D01*
X54124500Y-95086229D01*
X54158145Y-95255374D01*
X54158146Y-95255377D01*
X54224139Y-95414700D01*
X54224142Y-95414705D01*
X54319955Y-95558099D01*
X54441901Y-95680045D01*
X54585295Y-95775858D01*
X54585298Y-95775859D01*
X54593798Y-95780403D01*
X54668899Y-95842039D01*
X54714696Y-95927722D01*
X54724218Y-96024410D01*
X54696014Y-96117381D01*
X54634378Y-96192482D01*
X54593798Y-96219597D01*
X54585294Y-96224142D01*
X54441904Y-96319952D01*
X54319952Y-96441904D01*
X54224142Y-96585294D01*
X54224139Y-96585299D01*
X54158146Y-96744622D01*
X54158146Y-96744623D01*
X54158145Y-96744626D01*
X54124500Y-96913771D01*
X54124500Y-97086229D01*
X54155184Y-97240487D01*
X54158146Y-97255377D01*
X54224139Y-97414700D01*
X54224142Y-97414705D01*
X54308517Y-97540982D01*
X54319955Y-97558099D01*
X54441901Y-97680045D01*
X54585295Y-97775858D01*
X54585298Y-97775859D01*
X54593798Y-97780403D01*
X54668899Y-97842039D01*
X54714696Y-97927722D01*
X54724218Y-98024410D01*
X54696014Y-98117381D01*
X54634378Y-98192482D01*
X54593798Y-98219597D01*
X54585294Y-98224142D01*
X54441904Y-98319952D01*
X54319952Y-98441904D01*
X54224142Y-98585294D01*
X54224139Y-98585299D01*
X54158146Y-98744622D01*
X54158146Y-98744623D01*
X54158145Y-98744626D01*
X54124500Y-98913771D01*
X54124500Y-99086229D01*
X54143058Y-99179524D01*
X54158146Y-99255377D01*
X54224139Y-99414700D01*
X54224142Y-99414705D01*
X54319955Y-99558099D01*
X54441901Y-99680045D01*
X54585295Y-99775858D01*
X54585298Y-99775859D01*
X54593798Y-99780403D01*
X54668899Y-99842039D01*
X54714696Y-99927722D01*
X54724218Y-100024410D01*
X54696014Y-100117381D01*
X54634378Y-100192482D01*
X54593798Y-100219597D01*
X54585294Y-100224142D01*
X54441904Y-100319952D01*
X54319952Y-100441904D01*
X54224142Y-100585294D01*
X54224139Y-100585299D01*
X54158146Y-100744622D01*
X54158145Y-100744625D01*
X54158145Y-100744626D01*
X54124500Y-100913771D01*
X54124500Y-101086229D01*
X54158145Y-101255374D01*
X54158146Y-101255377D01*
X54224139Y-101414700D01*
X54224142Y-101414705D01*
X54319955Y-101558099D01*
X54441901Y-101680045D01*
X54585295Y-101775858D01*
X54585298Y-101775859D01*
X54593798Y-101780403D01*
X54668899Y-101842039D01*
X54714696Y-101927722D01*
X54724218Y-102024410D01*
X54696014Y-102117381D01*
X54634378Y-102192482D01*
X54593798Y-102219597D01*
X54585294Y-102224142D01*
X54441904Y-102319952D01*
X54319952Y-102441904D01*
X54224142Y-102585294D01*
X54224139Y-102585299D01*
X54158146Y-102744622D01*
X54158145Y-102744625D01*
X54158145Y-102744626D01*
X54124500Y-102913771D01*
X54124500Y-103086229D01*
X54156284Y-103246016D01*
X54158146Y-103255377D01*
X54224139Y-103414700D01*
X54224142Y-103414705D01*
X54312212Y-103546512D01*
X54319955Y-103558099D01*
X54441901Y-103680045D01*
X54585295Y-103775858D01*
X54585298Y-103775859D01*
X54593798Y-103780403D01*
X54668899Y-103842039D01*
X54714696Y-103927722D01*
X54724218Y-104024410D01*
X54696014Y-104117381D01*
X54634378Y-104192482D01*
X54593798Y-104219597D01*
X54585294Y-104224142D01*
X54441904Y-104319952D01*
X54319952Y-104441904D01*
X54224142Y-104585294D01*
X54224139Y-104585299D01*
X54158146Y-104744622D01*
X54158146Y-104744623D01*
X54158145Y-104744626D01*
X54124500Y-104913771D01*
X54124500Y-105086229D01*
X54155090Y-105240015D01*
X54158146Y-105255377D01*
X54224139Y-105414700D01*
X54224142Y-105414705D01*
X54319955Y-105558099D01*
X54441901Y-105680045D01*
X54585295Y-105775858D01*
X54585298Y-105775859D01*
X54593798Y-105780403D01*
X54668899Y-105842039D01*
X54714696Y-105927722D01*
X54724218Y-106024410D01*
X54696014Y-106117381D01*
X54634378Y-106192482D01*
X54593798Y-106219597D01*
X54585294Y-106224142D01*
X54441904Y-106319952D01*
X54319952Y-106441904D01*
X54224142Y-106585294D01*
X54224139Y-106585299D01*
X54158146Y-106744622D01*
X54158145Y-106744625D01*
X54158145Y-106744626D01*
X54124500Y-106913771D01*
X54124500Y-107086229D01*
X54158145Y-107255374D01*
X54158146Y-107255377D01*
X54224139Y-107414700D01*
X54224142Y-107414705D01*
X54319955Y-107558099D01*
X54441901Y-107680045D01*
X54585295Y-107775858D01*
X54585298Y-107775859D01*
X54593798Y-107780403D01*
X54668899Y-107842039D01*
X54714696Y-107927722D01*
X54724218Y-108024410D01*
X54696014Y-108117381D01*
X54634378Y-108192482D01*
X54593798Y-108219597D01*
X54585294Y-108224142D01*
X54441904Y-108319952D01*
X54319952Y-108441904D01*
X54224142Y-108585294D01*
X54224139Y-108585299D01*
X54158146Y-108744622D01*
X54158145Y-108744625D01*
X54158145Y-108744626D01*
X54124500Y-108913771D01*
X54124500Y-109086229D01*
X54136693Y-109147525D01*
X54158146Y-109255377D01*
X54224139Y-109414700D01*
X54224142Y-109414705D01*
X54319955Y-109558099D01*
X54441901Y-109680045D01*
X54585295Y-109775858D01*
X54585298Y-109775859D01*
X54593798Y-109780403D01*
X54668899Y-109842039D01*
X54714696Y-109927722D01*
X54724218Y-110024410D01*
X54696014Y-110117381D01*
X54634378Y-110192482D01*
X54593798Y-110219597D01*
X54585294Y-110224142D01*
X54441904Y-110319952D01*
X54319952Y-110441904D01*
X54224142Y-110585294D01*
X54224139Y-110585299D01*
X54158146Y-110744622D01*
X54158145Y-110744625D01*
X54158145Y-110744626D01*
X54124500Y-110913771D01*
X54124500Y-111086229D01*
X54158145Y-111255374D01*
X54158146Y-111255377D01*
X54224139Y-111414700D01*
X54224142Y-111414705D01*
X54281812Y-111501015D01*
X54319955Y-111558099D01*
X54441901Y-111680045D01*
X54585295Y-111775858D01*
X54585298Y-111775859D01*
X54593798Y-111780403D01*
X54668899Y-111842039D01*
X54714696Y-111927722D01*
X54724218Y-112024410D01*
X54696014Y-112117381D01*
X54634378Y-112192482D01*
X54593798Y-112219597D01*
X54585294Y-112224142D01*
X54441904Y-112319952D01*
X54319952Y-112441904D01*
X54224142Y-112585294D01*
X54224139Y-112585299D01*
X54158146Y-112744622D01*
X54158145Y-112744625D01*
X54158145Y-112744626D01*
X54124500Y-112913771D01*
X54124500Y-113086229D01*
X54158145Y-113255374D01*
X54158146Y-113255377D01*
X54224139Y-113414700D01*
X54224142Y-113414705D01*
X54319955Y-113558099D01*
X54441901Y-113680045D01*
X54585295Y-113775858D01*
X54585298Y-113775859D01*
X54593798Y-113780403D01*
X54668899Y-113842039D01*
X54714696Y-113927722D01*
X54724218Y-114024410D01*
X54696014Y-114117381D01*
X54634378Y-114192482D01*
X54593798Y-114219597D01*
X54585294Y-114224142D01*
X54441904Y-114319952D01*
X54319952Y-114441904D01*
X54224142Y-114585294D01*
X54224139Y-114585299D01*
X54158146Y-114744622D01*
X54158145Y-114744625D01*
X54158145Y-114744626D01*
X54124500Y-114913771D01*
X54124500Y-115086229D01*
X54158145Y-115255374D01*
X54158146Y-115255377D01*
X54224139Y-115414700D01*
X54224142Y-115414705D01*
X54279480Y-115497525D01*
X54319955Y-115558099D01*
X54441901Y-115680045D01*
X54585295Y-115775858D01*
X54585298Y-115775859D01*
X54593798Y-115780403D01*
X54668899Y-115842039D01*
X54714696Y-115927722D01*
X54724218Y-116024410D01*
X54696014Y-116117381D01*
X54634378Y-116192482D01*
X54593798Y-116219597D01*
X54585294Y-116224142D01*
X54441904Y-116319952D01*
X54319952Y-116441904D01*
X54224142Y-116585294D01*
X54224139Y-116585299D01*
X54158146Y-116744622D01*
X54158145Y-116744625D01*
X54158145Y-116744626D01*
X54124500Y-116913771D01*
X54124500Y-117086229D01*
X54158145Y-117255374D01*
X54158145Y-117255375D01*
X54158146Y-117255377D01*
X54224139Y-117414700D01*
X54224142Y-117414705D01*
X54319955Y-117558099D01*
X54441901Y-117680045D01*
X54585295Y-117775858D01*
X54585298Y-117775859D01*
X54593798Y-117780403D01*
X54668899Y-117842039D01*
X54714696Y-117927722D01*
X54724218Y-118024410D01*
X54696014Y-118117381D01*
X54634378Y-118192482D01*
X54593798Y-118219597D01*
X54585294Y-118224142D01*
X54441904Y-118319952D01*
X54319952Y-118441904D01*
X54224142Y-118585294D01*
X54224139Y-118585299D01*
X54158146Y-118744622D01*
X54158145Y-118744625D01*
X54158145Y-118744626D01*
X54124500Y-118913771D01*
X54124500Y-119086229D01*
X54158145Y-119255374D01*
X54158146Y-119255377D01*
X54224139Y-119414700D01*
X54224142Y-119414705D01*
X54319955Y-119558099D01*
X54441901Y-119680045D01*
X54585295Y-119775858D01*
X54585298Y-119775859D01*
X54593798Y-119780403D01*
X54668899Y-119842039D01*
X54714696Y-119927722D01*
X54724218Y-120024410D01*
X54696014Y-120117381D01*
X54634378Y-120192482D01*
X54593798Y-120219597D01*
X54585294Y-120224142D01*
X54441904Y-120319952D01*
X54319952Y-120441904D01*
X54224142Y-120585294D01*
X54224139Y-120585299D01*
X54158146Y-120744622D01*
X54158145Y-120744625D01*
X54158145Y-120744626D01*
X54124500Y-120913771D01*
X54124500Y-121086229D01*
X54158145Y-121255374D01*
X54158146Y-121255377D01*
X54224139Y-121414700D01*
X54224142Y-121414705D01*
X54319955Y-121558099D01*
X54441901Y-121680045D01*
X54441905Y-121680047D01*
X54446108Y-121683497D01*
X54449559Y-121687702D01*
X54450551Y-121688694D01*
X54450453Y-121688791D01*
X54507743Y-121758597D01*
X54535948Y-121851568D01*
X54526426Y-121948256D01*
X54480629Y-122033940D01*
X54405529Y-122095575D01*
X54312564Y-122123779D01*
X54305262Y-122124498D01*
X54246767Y-122136133D01*
X54180451Y-122180445D01*
X54180445Y-122180451D01*
X54136133Y-122246767D01*
X54136133Y-122246769D01*
X54124500Y-122305252D01*
X54124500Y-123694748D01*
X54133224Y-123738610D01*
X54136133Y-123753232D01*
X54151251Y-123775857D01*
X54180448Y-123819552D01*
X54180451Y-123819554D01*
X54246767Y-123863866D01*
X54246769Y-123863867D01*
X54305252Y-123875500D01*
X54305255Y-123875500D01*
X55694745Y-123875500D01*
X55694748Y-123875500D01*
X55753231Y-123863867D01*
X55819552Y-123819552D01*
X55863867Y-123753231D01*
X55875500Y-123694748D01*
X55875500Y-123694741D01*
X55876219Y-123687448D01*
X55904420Y-123594477D01*
X55966054Y-123519374D01*
X56051736Y-123473575D01*
X56148424Y-123464051D01*
X56241395Y-123492252D01*
X56311209Y-123549545D01*
X56311306Y-123549449D01*
X56312288Y-123550431D01*
X56316498Y-123553886D01*
X56316501Y-123553890D01*
X56319951Y-123558094D01*
X56319952Y-123558095D01*
X56319955Y-123558099D01*
X56441901Y-123680045D01*
X56585295Y-123775858D01*
X56585297Y-123775858D01*
X56585299Y-123775860D01*
X56664960Y-123808856D01*
X56744626Y-123841855D01*
X56913771Y-123875500D01*
X56913774Y-123875500D01*
X57086226Y-123875500D01*
X57086229Y-123875500D01*
X57255374Y-123841855D01*
X57414705Y-123775858D01*
X57558099Y-123680045D01*
X57680045Y-123558099D01*
X57775858Y-123414705D01*
X57775860Y-123414699D01*
X57780401Y-123406206D01*
X57842035Y-123331104D01*
X57927717Y-123285304D01*
X58024404Y-123275781D01*
X58117376Y-123303983D01*
X58192478Y-123365617D01*
X58219599Y-123406206D01*
X58224140Y-123414702D01*
X58319951Y-123558094D01*
X58319955Y-123558099D01*
X58441901Y-123680045D01*
X58585295Y-123775858D01*
X58585297Y-123775858D01*
X58585299Y-123775860D01*
X58664960Y-123808856D01*
X58744626Y-123841855D01*
X58913771Y-123875500D01*
X58913774Y-123875500D01*
X59086226Y-123875500D01*
X59086229Y-123875500D01*
X59255374Y-123841855D01*
X59414705Y-123775858D01*
X59558099Y-123680045D01*
X59680045Y-123558099D01*
X59775858Y-123414705D01*
X59775860Y-123414699D01*
X59780401Y-123406206D01*
X59842035Y-123331104D01*
X59927717Y-123285304D01*
X60024404Y-123275781D01*
X60117376Y-123303983D01*
X60192478Y-123365617D01*
X60219599Y-123406206D01*
X60224140Y-123414702D01*
X60319951Y-123558094D01*
X60319955Y-123558099D01*
X60441901Y-123680045D01*
X60585295Y-123775858D01*
X60585297Y-123775858D01*
X60585299Y-123775860D01*
X60664960Y-123808856D01*
X60744626Y-123841855D01*
X60913771Y-123875500D01*
X60913774Y-123875500D01*
X61086226Y-123875500D01*
X61086229Y-123875500D01*
X61255374Y-123841855D01*
X61414705Y-123775858D01*
X61558099Y-123680045D01*
X61680045Y-123558099D01*
X61775858Y-123414705D01*
X61841855Y-123255374D01*
X61875500Y-123086229D01*
X61875500Y-122913771D01*
X61841855Y-122744626D01*
X61775858Y-122585295D01*
X61707188Y-122482524D01*
X70061500Y-122482524D01*
X70061500Y-122627475D01*
X70099015Y-122767482D01*
X70099017Y-122767487D01*
X70171488Y-122893011D01*
X70171489Y-122893012D01*
X70171491Y-122893015D01*
X70273985Y-122995509D01*
X70399515Y-123067984D01*
X70539525Y-123105500D01*
X70684474Y-123105500D01*
X70684475Y-123105500D01*
X70824485Y-123067984D01*
X70950015Y-122995509D01*
X71052509Y-122893015D01*
X71124984Y-122767485D01*
X71162500Y-122627475D01*
X71162500Y-122482525D01*
X71128470Y-122355524D01*
X97366500Y-122355524D01*
X97366500Y-122500475D01*
X97404015Y-122640482D01*
X97404017Y-122640487D01*
X97476488Y-122766011D01*
X97476489Y-122766012D01*
X97476491Y-122766015D01*
X97578985Y-122868509D01*
X97578987Y-122868510D01*
X97578988Y-122868511D01*
X97641750Y-122904746D01*
X97704515Y-122940984D01*
X97844525Y-122978500D01*
X97989474Y-122978500D01*
X97989475Y-122978500D01*
X98129485Y-122940984D01*
X98255015Y-122868509D01*
X98357509Y-122766015D01*
X98429984Y-122640485D01*
X98467500Y-122500475D01*
X98467500Y-122355525D01*
X98464014Y-122342517D01*
X98454029Y-122305252D01*
X98429984Y-122215515D01*
X98371656Y-122114488D01*
X98357511Y-122089988D01*
X98357510Y-122089987D01*
X98357509Y-122089985D01*
X98255015Y-121987491D01*
X98255012Y-121987489D01*
X98255011Y-121987488D01*
X98129487Y-121915017D01*
X98129482Y-121915015D01*
X97989475Y-121877500D01*
X97844525Y-121877500D01*
X97704517Y-121915015D01*
X97704512Y-121915017D01*
X97578988Y-121987488D01*
X97476488Y-122089988D01*
X97404017Y-122215512D01*
X97404015Y-122215517D01*
X97366500Y-122355524D01*
X71128470Y-122355524D01*
X71124984Y-122342515D01*
X71052509Y-122216985D01*
X70950015Y-122114491D01*
X70950012Y-122114489D01*
X70950011Y-122114488D01*
X70824487Y-122042017D01*
X70824482Y-122042015D01*
X70684475Y-122004500D01*
X70539525Y-122004500D01*
X70399517Y-122042015D01*
X70399512Y-122042017D01*
X70273988Y-122114488D01*
X70171488Y-122216988D01*
X70099017Y-122342512D01*
X70099015Y-122342517D01*
X70061500Y-122482524D01*
X61707188Y-122482524D01*
X61680045Y-122441901D01*
X61558099Y-122319955D01*
X61536103Y-122305258D01*
X61414702Y-122224140D01*
X61406206Y-122219599D01*
X61331104Y-122157965D01*
X61285304Y-122072283D01*
X61275781Y-121975596D01*
X61303983Y-121882624D01*
X61365617Y-121807522D01*
X61406206Y-121780401D01*
X61414699Y-121775860D01*
X61414705Y-121775858D01*
X61558099Y-121680045D01*
X61680045Y-121558099D01*
X61775858Y-121414705D01*
X61841855Y-121255374D01*
X61875500Y-121086229D01*
X61875500Y-120913771D01*
X61841855Y-120744626D01*
X61775858Y-120585295D01*
X61680045Y-120441901D01*
X61558099Y-120319955D01*
X61414705Y-120224142D01*
X61414700Y-120224139D01*
X61255377Y-120158146D01*
X61255375Y-120158145D01*
X61255374Y-120158145D01*
X61086229Y-120124500D01*
X60913771Y-120124500D01*
X60744626Y-120158145D01*
X60744625Y-120158145D01*
X60744622Y-120158146D01*
X60585299Y-120224139D01*
X60585294Y-120224142D01*
X60441904Y-120319952D01*
X60319952Y-120441904D01*
X60224142Y-120585294D01*
X60219597Y-120593798D01*
X60157961Y-120668899D01*
X60072278Y-120714696D01*
X59975590Y-120724218D01*
X59882619Y-120696014D01*
X59807518Y-120634378D01*
X59780403Y-120593798D01*
X59775857Y-120585294D01*
X59680047Y-120441904D01*
X59680045Y-120441901D01*
X59558099Y-120319955D01*
X59414705Y-120224142D01*
X59414704Y-120224141D01*
X59414702Y-120224140D01*
X59406206Y-120219599D01*
X59331104Y-120157965D01*
X59285304Y-120072283D01*
X59275781Y-119975596D01*
X59303983Y-119882624D01*
X59359050Y-119815524D01*
X85555500Y-119815524D01*
X85555500Y-119960475D01*
X85593015Y-120100482D01*
X85593017Y-120100487D01*
X85665488Y-120226011D01*
X85665489Y-120226012D01*
X85665491Y-120226015D01*
X85767985Y-120328509D01*
X85893515Y-120400984D01*
X86033525Y-120438500D01*
X86178474Y-120438500D01*
X86178475Y-120438500D01*
X86318485Y-120400984D01*
X86444015Y-120328509D01*
X86546509Y-120226015D01*
X86618984Y-120100485D01*
X86656500Y-119960475D01*
X86656500Y-119815525D01*
X86656500Y-119815524D01*
X126068500Y-119815524D01*
X126068500Y-119960475D01*
X126106015Y-120100482D01*
X126106017Y-120100487D01*
X126178488Y-120226011D01*
X126178489Y-120226012D01*
X126178491Y-120226015D01*
X126280985Y-120328509D01*
X126406515Y-120400984D01*
X126546525Y-120438500D01*
X126691474Y-120438500D01*
X126691475Y-120438500D01*
X126831485Y-120400984D01*
X126957015Y-120328509D01*
X127059509Y-120226015D01*
X127131984Y-120100485D01*
X127169500Y-119960475D01*
X127169500Y-119815525D01*
X127160088Y-119780401D01*
X127133198Y-119680047D01*
X127131984Y-119675515D01*
X127064194Y-119558099D01*
X127059511Y-119549988D01*
X127059510Y-119549987D01*
X127059509Y-119549985D01*
X126957015Y-119447491D01*
X126957012Y-119447489D01*
X126957011Y-119447488D01*
X126831487Y-119375017D01*
X126831482Y-119375015D01*
X126691475Y-119337500D01*
X126546525Y-119337500D01*
X126406517Y-119375015D01*
X126406512Y-119375017D01*
X126280988Y-119447488D01*
X126178488Y-119549988D01*
X126106017Y-119675512D01*
X126106015Y-119675517D01*
X126068500Y-119815524D01*
X86656500Y-119815524D01*
X86647088Y-119780401D01*
X86620198Y-119680047D01*
X86618984Y-119675515D01*
X86551194Y-119558099D01*
X86546511Y-119549988D01*
X86546510Y-119549987D01*
X86546509Y-119549985D01*
X86444015Y-119447491D01*
X86444012Y-119447489D01*
X86444011Y-119447488D01*
X86318487Y-119375017D01*
X86318482Y-119375015D01*
X86178475Y-119337500D01*
X86033525Y-119337500D01*
X85893517Y-119375015D01*
X85893512Y-119375017D01*
X85767988Y-119447488D01*
X85665488Y-119549988D01*
X85593017Y-119675512D01*
X85593015Y-119675517D01*
X85555500Y-119815524D01*
X59359050Y-119815524D01*
X59365617Y-119807522D01*
X59374099Y-119800862D01*
X59398425Y-119782601D01*
X59414705Y-119775858D01*
X59558099Y-119680045D01*
X59680045Y-119558099D01*
X59775858Y-119414705D01*
X59841855Y-119255374D01*
X59875500Y-119086229D01*
X59875500Y-118913771D01*
X59841855Y-118744626D01*
X59775858Y-118585295D01*
X59680045Y-118441901D01*
X59558099Y-118319955D01*
X59414705Y-118224142D01*
X59414704Y-118224141D01*
X59414702Y-118224140D01*
X59406206Y-118219599D01*
X59331104Y-118157965D01*
X59285304Y-118072283D01*
X59275781Y-117975596D01*
X59303983Y-117882624D01*
X59365617Y-117807522D01*
X59406206Y-117780401D01*
X59414699Y-117775860D01*
X59414705Y-117775858D01*
X59558099Y-117680045D01*
X59680045Y-117558099D01*
X59775858Y-117414705D01*
X59775860Y-117414699D01*
X59780401Y-117406206D01*
X59842035Y-117331104D01*
X59927717Y-117285304D01*
X60024404Y-117275781D01*
X60117376Y-117303983D01*
X60192478Y-117365617D01*
X60219599Y-117406206D01*
X60224140Y-117414702D01*
X60224141Y-117414704D01*
X60224142Y-117414705D01*
X60319955Y-117558099D01*
X60441901Y-117680045D01*
X60585295Y-117775858D01*
X60585297Y-117775858D01*
X60585299Y-117775860D01*
X60615837Y-117788509D01*
X60744626Y-117841855D01*
X60913771Y-117875500D01*
X60913774Y-117875500D01*
X61086226Y-117875500D01*
X61086229Y-117875500D01*
X61255374Y-117841855D01*
X61414705Y-117775858D01*
X61558099Y-117680045D01*
X61680045Y-117558099D01*
X61775858Y-117414705D01*
X61833509Y-117275524D01*
X89365500Y-117275524D01*
X89365500Y-117420475D01*
X89403015Y-117560482D01*
X89403017Y-117560487D01*
X89475488Y-117686011D01*
X89475489Y-117686012D01*
X89475491Y-117686015D01*
X89577985Y-117788509D01*
X89703515Y-117860984D01*
X89843525Y-117898500D01*
X89988474Y-117898500D01*
X89988475Y-117898500D01*
X90128485Y-117860984D01*
X90254015Y-117788509D01*
X90356509Y-117686015D01*
X90428984Y-117560485D01*
X90466500Y-117420475D01*
X90466500Y-117275525D01*
X90461100Y-117255374D01*
X90449110Y-117210625D01*
X90428984Y-117135515D01*
X90356509Y-117009985D01*
X90254015Y-116907491D01*
X90254012Y-116907489D01*
X90254011Y-116907488D01*
X90128487Y-116835017D01*
X90128482Y-116835015D01*
X89988475Y-116797500D01*
X89843525Y-116797500D01*
X89703517Y-116835015D01*
X89703512Y-116835017D01*
X89577988Y-116907488D01*
X89475488Y-117009988D01*
X89403017Y-117135512D01*
X89403015Y-117135517D01*
X89365500Y-117275524D01*
X61833509Y-117275524D01*
X61841855Y-117255374D01*
X61875500Y-117086229D01*
X61875500Y-116913771D01*
X61841855Y-116744626D01*
X61775858Y-116585295D01*
X61680045Y-116441901D01*
X61558099Y-116319955D01*
X61414705Y-116224142D01*
X61414704Y-116224141D01*
X61414702Y-116224140D01*
X61406206Y-116219599D01*
X61331104Y-116157965D01*
X61285304Y-116072283D01*
X61275781Y-115975596D01*
X61303983Y-115882624D01*
X61365617Y-115807522D01*
X61406206Y-115780401D01*
X61414699Y-115775860D01*
X61414705Y-115775858D01*
X61558099Y-115680045D01*
X61680045Y-115558099D01*
X61720520Y-115497524D01*
X73998500Y-115497524D01*
X73998500Y-115642475D01*
X74036015Y-115782482D01*
X74036017Y-115782487D01*
X74108488Y-115908011D01*
X74108489Y-115908012D01*
X74108491Y-115908015D01*
X74210985Y-116010509D01*
X74336515Y-116082984D01*
X74476525Y-116120500D01*
X74621474Y-116120500D01*
X74621475Y-116120500D01*
X74761485Y-116082984D01*
X74887015Y-116010509D01*
X74989509Y-115908015D01*
X75061984Y-115782485D01*
X75099500Y-115642475D01*
X75099500Y-115497525D01*
X75061984Y-115357515D01*
X75014795Y-115275781D01*
X74989511Y-115231988D01*
X74989510Y-115231987D01*
X74989509Y-115231985D01*
X74887015Y-115129491D01*
X74887012Y-115129489D01*
X74887011Y-115129488D01*
X74761487Y-115057017D01*
X74761482Y-115057015D01*
X74621475Y-115019500D01*
X74476525Y-115019500D01*
X74336517Y-115057015D01*
X74336512Y-115057017D01*
X74210988Y-115129488D01*
X74108488Y-115231988D01*
X74036017Y-115357512D01*
X74036015Y-115357517D01*
X73998500Y-115497524D01*
X61720520Y-115497524D01*
X61775858Y-115414705D01*
X61779819Y-115405140D01*
X61787783Y-115385917D01*
X61787783Y-115385916D01*
X61799548Y-115357512D01*
X61841855Y-115255374D01*
X61875500Y-115086229D01*
X61875500Y-114913771D01*
X61841855Y-114744626D01*
X61775858Y-114585295D01*
X61680045Y-114441901D01*
X61558099Y-114319955D01*
X61414705Y-114224142D01*
X61414704Y-114224141D01*
X61414702Y-114224140D01*
X61406206Y-114219599D01*
X61331104Y-114157965D01*
X61285304Y-114072283D01*
X61275781Y-113975596D01*
X61303983Y-113882624D01*
X61365617Y-113807522D01*
X61406206Y-113780401D01*
X61414699Y-113775860D01*
X61414705Y-113775858D01*
X61558099Y-113680045D01*
X61680045Y-113558099D01*
X61741902Y-113465524D01*
X102319500Y-113465524D01*
X102319500Y-113610475D01*
X102357015Y-113750482D01*
X102357017Y-113750487D01*
X102429488Y-113876011D01*
X102429489Y-113876012D01*
X102429491Y-113876015D01*
X102531985Y-113978509D01*
X102657515Y-114050984D01*
X102797525Y-114088500D01*
X102942474Y-114088500D01*
X102942475Y-114088500D01*
X103082485Y-114050984D01*
X103208015Y-113978509D01*
X103310509Y-113876015D01*
X103382984Y-113750485D01*
X103420500Y-113610475D01*
X103420500Y-113465525D01*
X103382984Y-113325515D01*
X103310509Y-113199985D01*
X103208015Y-113097491D01*
X103208012Y-113097489D01*
X103208011Y-113097488D01*
X103082487Y-113025017D01*
X103082482Y-113025015D01*
X102942475Y-112987500D01*
X102797525Y-112987500D01*
X102657517Y-113025015D01*
X102657512Y-113025017D01*
X102531988Y-113097488D01*
X102429488Y-113199988D01*
X102357017Y-113325512D01*
X102357015Y-113325517D01*
X102319500Y-113465524D01*
X61741902Y-113465524D01*
X61775858Y-113414705D01*
X61801038Y-113353916D01*
X61801039Y-113353914D01*
X61841853Y-113255379D01*
X61841853Y-113255378D01*
X61841855Y-113255374D01*
X61875500Y-113086229D01*
X61875500Y-112913771D01*
X61841855Y-112744626D01*
X61775858Y-112585295D01*
X61680045Y-112441901D01*
X61558099Y-112319955D01*
X61414705Y-112224142D01*
X61414704Y-112224141D01*
X61414702Y-112224140D01*
X61406206Y-112219599D01*
X61331104Y-112157965D01*
X61285304Y-112072283D01*
X61275781Y-111975596D01*
X61286116Y-111941524D01*
X86317500Y-111941524D01*
X86317500Y-112086475D01*
X86355015Y-112226482D01*
X86355017Y-112226487D01*
X86427488Y-112352011D01*
X86427489Y-112352012D01*
X86427491Y-112352015D01*
X86529985Y-112454509D01*
X86655515Y-112526984D01*
X86795525Y-112564500D01*
X86940474Y-112564500D01*
X86940475Y-112564500D01*
X87080485Y-112526984D01*
X87206015Y-112454509D01*
X87308509Y-112352015D01*
X87380984Y-112226485D01*
X87418500Y-112086475D01*
X87418500Y-111941525D01*
X87414801Y-111927722D01*
X87385806Y-111819511D01*
X87380984Y-111801515D01*
X87332196Y-111717012D01*
X87308511Y-111675988D01*
X87308510Y-111675987D01*
X87308509Y-111675985D01*
X87206015Y-111573491D01*
X87206012Y-111573489D01*
X87206011Y-111573488D01*
X87080487Y-111501017D01*
X87080482Y-111501015D01*
X86940475Y-111463500D01*
X86795525Y-111463500D01*
X86655517Y-111501015D01*
X86655512Y-111501017D01*
X86529988Y-111573488D01*
X86427488Y-111675988D01*
X86355017Y-111801512D01*
X86355015Y-111801517D01*
X86317500Y-111941524D01*
X61286116Y-111941524D01*
X61303983Y-111882624D01*
X61365617Y-111807522D01*
X61406206Y-111780401D01*
X61414699Y-111775860D01*
X61414705Y-111775858D01*
X61558099Y-111680045D01*
X61680045Y-111558099D01*
X61775858Y-111414705D01*
X61820668Y-111306524D01*
X77046500Y-111306524D01*
X77046500Y-111451475D01*
X77084015Y-111591482D01*
X77084017Y-111591487D01*
X77156488Y-111717011D01*
X77156489Y-111717012D01*
X77156491Y-111717015D01*
X77258985Y-111819509D01*
X77384515Y-111891984D01*
X77524525Y-111929500D01*
X77669474Y-111929500D01*
X77669475Y-111929500D01*
X77809485Y-111891984D01*
X77935015Y-111819509D01*
X78037509Y-111717015D01*
X78109984Y-111591485D01*
X78147500Y-111451475D01*
X78147500Y-111306525D01*
X78109984Y-111166515D01*
X78037509Y-111040985D01*
X77935015Y-110938491D01*
X77935012Y-110938489D01*
X77935011Y-110938488D01*
X77809487Y-110866017D01*
X77809482Y-110866015D01*
X77669475Y-110828500D01*
X77524525Y-110828500D01*
X77384517Y-110866015D01*
X77384512Y-110866017D01*
X77258988Y-110938488D01*
X77156488Y-111040988D01*
X77084017Y-111166512D01*
X77084015Y-111166517D01*
X77046500Y-111306524D01*
X61820668Y-111306524D01*
X61841855Y-111255374D01*
X61875500Y-111086229D01*
X61875500Y-110913771D01*
X61841855Y-110744626D01*
X61775858Y-110585295D01*
X61680045Y-110441901D01*
X61558099Y-110319955D01*
X61414705Y-110224142D01*
X61414704Y-110224141D01*
X61414702Y-110224140D01*
X61406206Y-110219599D01*
X61331104Y-110157965D01*
X61285304Y-110072283D01*
X61275781Y-109975596D01*
X61303983Y-109882624D01*
X61365617Y-109807522D01*
X61406206Y-109780401D01*
X61414699Y-109775860D01*
X61414705Y-109775858D01*
X61558099Y-109680045D01*
X61680045Y-109558099D01*
X61775858Y-109414705D01*
X61841855Y-109255374D01*
X61863308Y-109147524D01*
X77046500Y-109147524D01*
X77046500Y-109292475D01*
X77084015Y-109432482D01*
X77084017Y-109432487D01*
X77156488Y-109558011D01*
X77156489Y-109558012D01*
X77156491Y-109558015D01*
X77258985Y-109660509D01*
X77258987Y-109660510D01*
X77258988Y-109660511D01*
X77321750Y-109696746D01*
X77384515Y-109732984D01*
X77524525Y-109770500D01*
X77669474Y-109770500D01*
X77669475Y-109770500D01*
X77809485Y-109732984D01*
X77935015Y-109660509D01*
X78037509Y-109558015D01*
X78109984Y-109432485D01*
X78147500Y-109292475D01*
X78147500Y-109147525D01*
X78109984Y-109007515D01*
X78037509Y-108881985D01*
X77935015Y-108779491D01*
X77935012Y-108779489D01*
X77935011Y-108779488D01*
X77809487Y-108707017D01*
X77809482Y-108707015D01*
X77669475Y-108669500D01*
X77524525Y-108669500D01*
X77384517Y-108707015D01*
X77384512Y-108707017D01*
X77258988Y-108779488D01*
X77156488Y-108881988D01*
X77084017Y-109007512D01*
X77084015Y-109007517D01*
X77046500Y-109147524D01*
X61863308Y-109147524D01*
X61875500Y-109086229D01*
X61875500Y-108913771D01*
X61841855Y-108744626D01*
X61775858Y-108585295D01*
X61680045Y-108441901D01*
X61558099Y-108319955D01*
X61414705Y-108224142D01*
X61414704Y-108224141D01*
X61414702Y-108224140D01*
X61406206Y-108219599D01*
X61331104Y-108157965D01*
X61285304Y-108072283D01*
X61275781Y-107975596D01*
X61303983Y-107882624D01*
X61365617Y-107807522D01*
X61406206Y-107780401D01*
X61414699Y-107775860D01*
X61414705Y-107775858D01*
X61558099Y-107680045D01*
X61680045Y-107558099D01*
X61775858Y-107414705D01*
X61841855Y-107255374D01*
X61875500Y-107086229D01*
X61875500Y-106913771D01*
X61841855Y-106744626D01*
X61775858Y-106585295D01*
X61702523Y-106475541D01*
X61702522Y-106475539D01*
X61680048Y-106441905D01*
X61680047Y-106441904D01*
X61680045Y-106441901D01*
X61591668Y-106353524D01*
X72601500Y-106353524D01*
X72601500Y-106498475D01*
X72639015Y-106638482D01*
X72639017Y-106638487D01*
X72711488Y-106764011D01*
X72711489Y-106764012D01*
X72711491Y-106764015D01*
X72813985Y-106866509D01*
X72939515Y-106938984D01*
X73079525Y-106976500D01*
X73224474Y-106976500D01*
X73224475Y-106976500D01*
X73364485Y-106938984D01*
X73490015Y-106866509D01*
X73545800Y-106810724D01*
X76982500Y-106810724D01*
X76982500Y-106955675D01*
X77020015Y-107095682D01*
X77020017Y-107095687D01*
X77092488Y-107221211D01*
X77092489Y-107221212D01*
X77092491Y-107221215D01*
X77194985Y-107323709D01*
X77320515Y-107396184D01*
X77460525Y-107433700D01*
X77605474Y-107433700D01*
X77605475Y-107433700D01*
X77745485Y-107396184D01*
X77871015Y-107323709D01*
X77973509Y-107221215D01*
X78045984Y-107095685D01*
X78083500Y-106955675D01*
X78083500Y-106810725D01*
X78045984Y-106670715D01*
X77973509Y-106545185D01*
X77871015Y-106442691D01*
X77871012Y-106442689D01*
X77871011Y-106442688D01*
X77745487Y-106370217D01*
X77745482Y-106370215D01*
X77605475Y-106332700D01*
X77460525Y-106332700D01*
X77320517Y-106370215D01*
X77320512Y-106370217D01*
X77194988Y-106442688D01*
X77092488Y-106545188D01*
X77020017Y-106670712D01*
X77020015Y-106670717D01*
X76982500Y-106810724D01*
X73545800Y-106810724D01*
X73592509Y-106764015D01*
X73664984Y-106638485D01*
X73702500Y-106498475D01*
X73702500Y-106353525D01*
X73664984Y-106213515D01*
X73592509Y-106087985D01*
X73490015Y-105985491D01*
X73490012Y-105985489D01*
X73490011Y-105985488D01*
X73364487Y-105913017D01*
X73364482Y-105913015D01*
X73224475Y-105875500D01*
X73079525Y-105875500D01*
X72939517Y-105913015D01*
X72939512Y-105913017D01*
X72813988Y-105985488D01*
X72711488Y-106087988D01*
X72639017Y-106213512D01*
X72639015Y-106213517D01*
X72601500Y-106353524D01*
X61591668Y-106353524D01*
X61558099Y-106319955D01*
X61414705Y-106224142D01*
X61414704Y-106224141D01*
X61414702Y-106224140D01*
X61406206Y-106219599D01*
X61331104Y-106157965D01*
X61285304Y-106072283D01*
X61275781Y-105975596D01*
X61303983Y-105882624D01*
X61365617Y-105807522D01*
X61406206Y-105780401D01*
X61414699Y-105775860D01*
X61414705Y-105775858D01*
X61558099Y-105680045D01*
X61680045Y-105558099D01*
X61775858Y-105414705D01*
X61841855Y-105255374D01*
X61875500Y-105086229D01*
X61875500Y-104913771D01*
X61858742Y-104829524D01*
X81034300Y-104829524D01*
X81034300Y-104974475D01*
X81071815Y-105114482D01*
X81071817Y-105114487D01*
X81144288Y-105240011D01*
X81144289Y-105240012D01*
X81144291Y-105240015D01*
X81246785Y-105342509D01*
X81372315Y-105414984D01*
X81512325Y-105452500D01*
X81657274Y-105452500D01*
X81657275Y-105452500D01*
X81797285Y-105414984D01*
X81922815Y-105342509D01*
X82025309Y-105240015D01*
X82097784Y-105114485D01*
X82135300Y-104974475D01*
X82135300Y-104829525D01*
X82135300Y-104829524D01*
X86444500Y-104829524D01*
X86444500Y-104974475D01*
X86482015Y-105114482D01*
X86482017Y-105114487D01*
X86554488Y-105240011D01*
X86554489Y-105240012D01*
X86554491Y-105240015D01*
X86656985Y-105342509D01*
X86782515Y-105414984D01*
X86922525Y-105452500D01*
X87067474Y-105452500D01*
X87067475Y-105452500D01*
X87207485Y-105414984D01*
X87333015Y-105342509D01*
X87435509Y-105240015D01*
X87507984Y-105114485D01*
X87545500Y-104974475D01*
X87545500Y-104829525D01*
X87507984Y-104689515D01*
X87447815Y-104585299D01*
X87435511Y-104563988D01*
X87435510Y-104563987D01*
X87435509Y-104563985D01*
X87333015Y-104461491D01*
X87333012Y-104461489D01*
X87333011Y-104461488D01*
X87207487Y-104389017D01*
X87207482Y-104389015D01*
X87067475Y-104351500D01*
X86922525Y-104351500D01*
X86782517Y-104389015D01*
X86782512Y-104389017D01*
X86656988Y-104461488D01*
X86554488Y-104563988D01*
X86482017Y-104689512D01*
X86482015Y-104689517D01*
X86444500Y-104829524D01*
X82135300Y-104829524D01*
X82097784Y-104689515D01*
X82037615Y-104585299D01*
X82025311Y-104563988D01*
X82025310Y-104563987D01*
X82025309Y-104563985D01*
X81922815Y-104461491D01*
X81922812Y-104461489D01*
X81922811Y-104461488D01*
X81797287Y-104389017D01*
X81797282Y-104389015D01*
X81657275Y-104351500D01*
X81512325Y-104351500D01*
X81372317Y-104389015D01*
X81372312Y-104389017D01*
X81246788Y-104461488D01*
X81144288Y-104563988D01*
X81071817Y-104689512D01*
X81071815Y-104689517D01*
X81034300Y-104829524D01*
X61858742Y-104829524D01*
X61841855Y-104744626D01*
X61841854Y-104744623D01*
X61775860Y-104585299D01*
X61775857Y-104585294D01*
X61680047Y-104441904D01*
X61680045Y-104441901D01*
X61558099Y-104319955D01*
X61486305Y-104271984D01*
X61414702Y-104224140D01*
X61406206Y-104219599D01*
X61331104Y-104157965D01*
X61285304Y-104072283D01*
X61275781Y-103975596D01*
X61303983Y-103882624D01*
X61365617Y-103807522D01*
X61406206Y-103780401D01*
X61414699Y-103775860D01*
X61414705Y-103775858D01*
X61558099Y-103680045D01*
X61680045Y-103558099D01*
X61763952Y-103432524D01*
X76157500Y-103432524D01*
X76157500Y-103577475D01*
X76195015Y-103717482D01*
X76195017Y-103717487D01*
X76267488Y-103843011D01*
X76267489Y-103843012D01*
X76267491Y-103843015D01*
X76369985Y-103945509D01*
X76369987Y-103945510D01*
X76369988Y-103945511D01*
X76414980Y-103971487D01*
X76495515Y-104017984D01*
X76635525Y-104055500D01*
X76780474Y-104055500D01*
X76780475Y-104055500D01*
X76920485Y-104017984D01*
X77046015Y-103945509D01*
X77148509Y-103843015D01*
X77155172Y-103831474D01*
X83523499Y-103831474D01*
X83561015Y-103971482D01*
X83561017Y-103971487D01*
X83633488Y-104097011D01*
X83633489Y-104097012D01*
X83633491Y-104097015D01*
X83735985Y-104199509D01*
X83861515Y-104271984D01*
X84001525Y-104309500D01*
X84146474Y-104309500D01*
X84146475Y-104309500D01*
X84286485Y-104271984D01*
X84412015Y-104199509D01*
X84514509Y-104097015D01*
X84586984Y-103971485D01*
X84624500Y-103831475D01*
X84624500Y-103686525D01*
X84586984Y-103546515D01*
X84514509Y-103420985D01*
X84412015Y-103318491D01*
X84412012Y-103318489D01*
X84412011Y-103318488D01*
X84286487Y-103246017D01*
X84286482Y-103246015D01*
X84146475Y-103208500D01*
X84001525Y-103208500D01*
X83861517Y-103246015D01*
X83861512Y-103246017D01*
X83735988Y-103318488D01*
X83633488Y-103420988D01*
X83561017Y-103546512D01*
X83561015Y-103546517D01*
X83523500Y-103686524D01*
X83523500Y-103831474D01*
X83523499Y-103831474D01*
X77155172Y-103831474D01*
X77220984Y-103717485D01*
X77258500Y-103577475D01*
X77258500Y-103432525D01*
X77220984Y-103292515D01*
X77148509Y-103166985D01*
X77046015Y-103064491D01*
X77046012Y-103064489D01*
X77046011Y-103064488D01*
X76920487Y-102992017D01*
X76920482Y-102992015D01*
X76780475Y-102954500D01*
X76635525Y-102954500D01*
X76495517Y-102992015D01*
X76495512Y-102992017D01*
X76369988Y-103064488D01*
X76267488Y-103166988D01*
X76195017Y-103292512D01*
X76195015Y-103292517D01*
X76157500Y-103432524D01*
X61763952Y-103432524D01*
X61775858Y-103414705D01*
X61814707Y-103320916D01*
X61814708Y-103320914D01*
X61841853Y-103255379D01*
X61841853Y-103255378D01*
X61841855Y-103255374D01*
X61875500Y-103086229D01*
X61875500Y-102913771D01*
X61841855Y-102744626D01*
X61775858Y-102585295D01*
X61680045Y-102441901D01*
X61558099Y-102319955D01*
X61414705Y-102224142D01*
X61414704Y-102224141D01*
X61414702Y-102224140D01*
X61406206Y-102219599D01*
X61331104Y-102157965D01*
X61285304Y-102072283D01*
X61275781Y-101975596D01*
X61303983Y-101882624D01*
X61365617Y-101807522D01*
X61406206Y-101780401D01*
X61414699Y-101775860D01*
X61414705Y-101775858D01*
X61558099Y-101680045D01*
X61680045Y-101558099D01*
X61775858Y-101414705D01*
X61841855Y-101255374D01*
X61875500Y-101086229D01*
X61875500Y-100913771D01*
X61841855Y-100744626D01*
X61775858Y-100585295D01*
X61680045Y-100441901D01*
X61558099Y-100319955D01*
X61414705Y-100224142D01*
X61414704Y-100224141D01*
X61414702Y-100224140D01*
X61406206Y-100219599D01*
X61331104Y-100157965D01*
X61285304Y-100072283D01*
X61275781Y-99975596D01*
X61303983Y-99882624D01*
X61365617Y-99807522D01*
X61406206Y-99780401D01*
X61414699Y-99775860D01*
X61414705Y-99775858D01*
X61558099Y-99680045D01*
X61680045Y-99558099D01*
X61775858Y-99414705D01*
X61841855Y-99255374D01*
X61875500Y-99086229D01*
X61875500Y-98913771D01*
X61864909Y-98860524D01*
X68918500Y-98860524D01*
X68918500Y-99005475D01*
X68956015Y-99145482D01*
X68956017Y-99145487D01*
X69028488Y-99271011D01*
X69028489Y-99271012D01*
X69028491Y-99271015D01*
X69130985Y-99373509D01*
X69256515Y-99445984D01*
X69396525Y-99483500D01*
X69541474Y-99483500D01*
X69541475Y-99483500D01*
X69681485Y-99445984D01*
X69807015Y-99373509D01*
X69909509Y-99271015D01*
X69962332Y-99179524D01*
X73973100Y-99179524D01*
X73973100Y-99324475D01*
X74010615Y-99464482D01*
X74010617Y-99464487D01*
X74083088Y-99590011D01*
X74083089Y-99590012D01*
X74083091Y-99590015D01*
X74185585Y-99692509D01*
X74311115Y-99764984D01*
X74451125Y-99802500D01*
X74596074Y-99802500D01*
X74596075Y-99802500D01*
X74736085Y-99764984D01*
X74861615Y-99692509D01*
X74964109Y-99590015D01*
X75036584Y-99464485D01*
X75074100Y-99324475D01*
X75074100Y-99179525D01*
X75064979Y-99145487D01*
X75061594Y-99132855D01*
X75036584Y-99039515D01*
X74964109Y-98913985D01*
X74906924Y-98856800D01*
X140716000Y-98856800D01*
X140716001Y-98856800D01*
X144017999Y-98856800D01*
X144018000Y-98856800D01*
X144018000Y-97332800D01*
X140716000Y-97332800D01*
X140716000Y-98856800D01*
X74906924Y-98856800D01*
X74861615Y-98811491D01*
X74861612Y-98811489D01*
X74861611Y-98811488D01*
X74736087Y-98739017D01*
X74736082Y-98739015D01*
X74596075Y-98701500D01*
X74451125Y-98701500D01*
X74311117Y-98739015D01*
X74311112Y-98739017D01*
X74185588Y-98811488D01*
X74083088Y-98913988D01*
X74010617Y-99039512D01*
X74010615Y-99039517D01*
X73973100Y-99179524D01*
X69962332Y-99179524D01*
X69981984Y-99145485D01*
X70019500Y-99005475D01*
X70019500Y-98860525D01*
X69981984Y-98720515D01*
X69909509Y-98594985D01*
X69807015Y-98492491D01*
X69807012Y-98492489D01*
X69807011Y-98492488D01*
X69681487Y-98420017D01*
X69681482Y-98420015D01*
X69541475Y-98382500D01*
X69396525Y-98382500D01*
X69256517Y-98420015D01*
X69256512Y-98420017D01*
X69130988Y-98492488D01*
X69028488Y-98594988D01*
X68956017Y-98720512D01*
X68956015Y-98720517D01*
X68918500Y-98860524D01*
X61864909Y-98860524D01*
X61841855Y-98744626D01*
X61841854Y-98744623D01*
X61775860Y-98585299D01*
X61775857Y-98585294D01*
X61680047Y-98441904D01*
X61680045Y-98441901D01*
X61558099Y-98319955D01*
X61414705Y-98224142D01*
X61414704Y-98224141D01*
X61414702Y-98224140D01*
X61406206Y-98219599D01*
X61331104Y-98157965D01*
X61285304Y-98072283D01*
X61275781Y-97975596D01*
X61303983Y-97882624D01*
X61365617Y-97807522D01*
X61406206Y-97780401D01*
X61414699Y-97775860D01*
X61414705Y-97775858D01*
X61558099Y-97680045D01*
X61680045Y-97558099D01*
X61775858Y-97414705D01*
X61841855Y-97255374D01*
X61875500Y-97086229D01*
X61875500Y-96913771D01*
X61858543Y-96828524D01*
X80537500Y-96828524D01*
X80537500Y-96973475D01*
X80575015Y-97113482D01*
X80575017Y-97113487D01*
X80647488Y-97239011D01*
X80647489Y-97239012D01*
X80647491Y-97239015D01*
X80749985Y-97341509D01*
X80749987Y-97341510D01*
X80749988Y-97341511D01*
X80812750Y-97377746D01*
X80875515Y-97413984D01*
X81015525Y-97451500D01*
X81160474Y-97451500D01*
X81160475Y-97451500D01*
X81300485Y-97413984D01*
X81426015Y-97341509D01*
X81528509Y-97239015D01*
X81600984Y-97113485D01*
X81638500Y-96973475D01*
X81638500Y-96955524D01*
X82888500Y-96955524D01*
X82888500Y-97100475D01*
X82926015Y-97240482D01*
X82926017Y-97240487D01*
X82998488Y-97366011D01*
X82998489Y-97366012D01*
X82998491Y-97366015D01*
X83100985Y-97468509D01*
X83226515Y-97540984D01*
X83366525Y-97578500D01*
X83511474Y-97578500D01*
X83511475Y-97578500D01*
X83651485Y-97540984D01*
X83777015Y-97468509D01*
X83879509Y-97366015D01*
X83951984Y-97240485D01*
X83989500Y-97100475D01*
X83989500Y-96955525D01*
X83951984Y-96815515D01*
X83911054Y-96744622D01*
X83879511Y-96689988D01*
X83879510Y-96689987D01*
X83879509Y-96689985D01*
X83777015Y-96587491D01*
X83777012Y-96587489D01*
X83777011Y-96587488D01*
X83651487Y-96515017D01*
X83651482Y-96515015D01*
X83511475Y-96477500D01*
X83366525Y-96477500D01*
X83226517Y-96515015D01*
X83226512Y-96515017D01*
X83100988Y-96587488D01*
X82998488Y-96689988D01*
X82926017Y-96815512D01*
X82926015Y-96815517D01*
X82888500Y-96955524D01*
X81638500Y-96955524D01*
X81638500Y-96828525D01*
X81635014Y-96815517D01*
X81616018Y-96744622D01*
X81600984Y-96688515D01*
X81528509Y-96562985D01*
X81426015Y-96460491D01*
X81426012Y-96460489D01*
X81426011Y-96460488D01*
X81300487Y-96388017D01*
X81300482Y-96388015D01*
X81160475Y-96350500D01*
X81015525Y-96350500D01*
X80875517Y-96388015D01*
X80875512Y-96388017D01*
X80749988Y-96460488D01*
X80647488Y-96562988D01*
X80575017Y-96688512D01*
X80575015Y-96688517D01*
X80537500Y-96828524D01*
X61858543Y-96828524D01*
X61841855Y-96744626D01*
X61841854Y-96744623D01*
X61775860Y-96585299D01*
X61775857Y-96585294D01*
X61728899Y-96515017D01*
X61680045Y-96441901D01*
X61558099Y-96319955D01*
X61414705Y-96224142D01*
X61414704Y-96224141D01*
X61414702Y-96224140D01*
X61406206Y-96219599D01*
X61331104Y-96157965D01*
X61285304Y-96072283D01*
X61275781Y-95975596D01*
X61303983Y-95882624D01*
X61365617Y-95807522D01*
X61406206Y-95780401D01*
X61414699Y-95775860D01*
X61414705Y-95775858D01*
X61558099Y-95680045D01*
X61680045Y-95558099D01*
X61775858Y-95414705D01*
X61841855Y-95255374D01*
X61875500Y-95086229D01*
X61875500Y-95050524D01*
X86317500Y-95050524D01*
X86317500Y-95195475D01*
X86355015Y-95335482D01*
X86355017Y-95335487D01*
X86427488Y-95461011D01*
X86427489Y-95461012D01*
X86427491Y-95461015D01*
X86529985Y-95563509D01*
X86655515Y-95635984D01*
X86795525Y-95673500D01*
X86940474Y-95673500D01*
X86940475Y-95673500D01*
X87080485Y-95635984D01*
X87206015Y-95563509D01*
X87308509Y-95461015D01*
X87380984Y-95335485D01*
X87418500Y-95195475D01*
X87418500Y-95050525D01*
X87380984Y-94910515D01*
X87308509Y-94784985D01*
X87206015Y-94682491D01*
X87206012Y-94682489D01*
X87206011Y-94682488D01*
X87080487Y-94610017D01*
X87080482Y-94610015D01*
X86940475Y-94572500D01*
X86795525Y-94572500D01*
X86655517Y-94610015D01*
X86655512Y-94610017D01*
X86529988Y-94682488D01*
X86427488Y-94784988D01*
X86355017Y-94910512D01*
X86355015Y-94910517D01*
X86317500Y-95050524D01*
X61875500Y-95050524D01*
X61875500Y-94913771D01*
X61841855Y-94744626D01*
X61786098Y-94610016D01*
X61775860Y-94585299D01*
X61775857Y-94585294D01*
X61767308Y-94572500D01*
X61680045Y-94441901D01*
X61558099Y-94319955D01*
X61414705Y-94224142D01*
X61414704Y-94224141D01*
X61414702Y-94224140D01*
X61406206Y-94219599D01*
X61331104Y-94157965D01*
X61285304Y-94072283D01*
X61275781Y-93975596D01*
X61303983Y-93882624D01*
X61365617Y-93807522D01*
X61406206Y-93780401D01*
X61414699Y-93775860D01*
X61414705Y-93775858D01*
X61558099Y-93680045D01*
X61680045Y-93558099D01*
X61775858Y-93414705D01*
X61841855Y-93255374D01*
X61875500Y-93086229D01*
X61875500Y-92913771D01*
X61841855Y-92744626D01*
X61775858Y-92585295D01*
X61680045Y-92441901D01*
X61558099Y-92319955D01*
X61414705Y-92224142D01*
X61414704Y-92224141D01*
X61414702Y-92224140D01*
X61406206Y-92219599D01*
X61331104Y-92157965D01*
X61285304Y-92072283D01*
X61275781Y-91975596D01*
X61303983Y-91882624D01*
X61365617Y-91807522D01*
X61406206Y-91780401D01*
X61414699Y-91775860D01*
X61414705Y-91775858D01*
X61558099Y-91680045D01*
X61680045Y-91558099D01*
X61775858Y-91414705D01*
X61841855Y-91255374D01*
X61875500Y-91086229D01*
X61875500Y-90913771D01*
X61841855Y-90744626D01*
X61775858Y-90585295D01*
X61680045Y-90441901D01*
X61558099Y-90319955D01*
X61414705Y-90224142D01*
X61414704Y-90224141D01*
X61414702Y-90224140D01*
X61406206Y-90219599D01*
X61331104Y-90157965D01*
X61285304Y-90072283D01*
X61275781Y-89975596D01*
X61303983Y-89882624D01*
X61365617Y-89807522D01*
X61406206Y-89780401D01*
X61414699Y-89775860D01*
X61414705Y-89775858D01*
X61558099Y-89680045D01*
X61680045Y-89558099D01*
X61775858Y-89414705D01*
X61841855Y-89255374D01*
X61875500Y-89086229D01*
X61875500Y-88913771D01*
X61841855Y-88744626D01*
X61775858Y-88585295D01*
X61680045Y-88441901D01*
X61558099Y-88319955D01*
X61483309Y-88269982D01*
X61414702Y-88224140D01*
X61406206Y-88219599D01*
X61331104Y-88157965D01*
X61285304Y-88072283D01*
X61275781Y-87975596D01*
X61303983Y-87882624D01*
X61365617Y-87807522D01*
X61406206Y-87780401D01*
X61414699Y-87775860D01*
X61414705Y-87775858D01*
X61551396Y-87684524D01*
X115527500Y-87684524D01*
X115527500Y-87829475D01*
X115565015Y-87969482D01*
X115565017Y-87969487D01*
X115637488Y-88095011D01*
X115637489Y-88095012D01*
X115637491Y-88095015D01*
X115739985Y-88197509D01*
X115739987Y-88197510D01*
X115739988Y-88197511D01*
X115802750Y-88233746D01*
X115865515Y-88269984D01*
X116005525Y-88307500D01*
X116150474Y-88307500D01*
X116150475Y-88307500D01*
X116290485Y-88269984D01*
X116416015Y-88197509D01*
X116518509Y-88095015D01*
X116590984Y-87969485D01*
X116628500Y-87829475D01*
X116628500Y-87684525D01*
X116590984Y-87544515D01*
X116518509Y-87418985D01*
X116416015Y-87316491D01*
X116416012Y-87316489D01*
X116416011Y-87316488D01*
X116290487Y-87244017D01*
X116290482Y-87244015D01*
X116150475Y-87206500D01*
X116005525Y-87206500D01*
X115865517Y-87244015D01*
X115865512Y-87244017D01*
X115739988Y-87316488D01*
X115637488Y-87418988D01*
X115565017Y-87544512D01*
X115565015Y-87544517D01*
X115527500Y-87684524D01*
X61551396Y-87684524D01*
X61558099Y-87680045D01*
X61680045Y-87558099D01*
X61775858Y-87414705D01*
X61841855Y-87255374D01*
X61875500Y-87086229D01*
X61875500Y-86913771D01*
X61841855Y-86744626D01*
X61775858Y-86585295D01*
X61680045Y-86441901D01*
X61558099Y-86319955D01*
X61414705Y-86224142D01*
X61414704Y-86224141D01*
X61414702Y-86224140D01*
X61406206Y-86219599D01*
X61331104Y-86157965D01*
X61285304Y-86072283D01*
X61275781Y-85975596D01*
X61303983Y-85882624D01*
X61365617Y-85807522D01*
X61406206Y-85780401D01*
X61414699Y-85775860D01*
X61414705Y-85775858D01*
X61558099Y-85680045D01*
X61680045Y-85558099D01*
X61775858Y-85414705D01*
X61841855Y-85255374D01*
X61875500Y-85086229D01*
X61875500Y-84913771D01*
X61841855Y-84744626D01*
X61775858Y-84585295D01*
X61680045Y-84441901D01*
X61558099Y-84319955D01*
X61414705Y-84224142D01*
X61414704Y-84224141D01*
X61414702Y-84224140D01*
X61406206Y-84219599D01*
X61331104Y-84157965D01*
X61285304Y-84072283D01*
X61275781Y-83975596D01*
X61303983Y-83882624D01*
X61365617Y-83807522D01*
X61406206Y-83780401D01*
X61414699Y-83775860D01*
X61414705Y-83775858D01*
X61558099Y-83680045D01*
X61680045Y-83558099D01*
X61775858Y-83414705D01*
X61841855Y-83255374D01*
X61875500Y-83086229D01*
X61875500Y-82913771D01*
X61841855Y-82744626D01*
X61775858Y-82585295D01*
X61680045Y-82441901D01*
X61558099Y-82319955D01*
X61414705Y-82224142D01*
X61414704Y-82224141D01*
X61414702Y-82224140D01*
X61406206Y-82219599D01*
X61331104Y-82157965D01*
X61285304Y-82072283D01*
X61275781Y-81975596D01*
X61303983Y-81882624D01*
X61365617Y-81807522D01*
X61406206Y-81780401D01*
X61414699Y-81775860D01*
X61414705Y-81775858D01*
X61558099Y-81680045D01*
X61680045Y-81558099D01*
X61775858Y-81414705D01*
X61841855Y-81255374D01*
X61875500Y-81086229D01*
X61875500Y-80913771D01*
X61841855Y-80744626D01*
X61775858Y-80585295D01*
X61680045Y-80441901D01*
X61558099Y-80319955D01*
X61414705Y-80224142D01*
X61414704Y-80224141D01*
X61414702Y-80224140D01*
X61406206Y-80219599D01*
X61331104Y-80157965D01*
X61285304Y-80072283D01*
X61275781Y-79975596D01*
X61303983Y-79882624D01*
X61365617Y-79807522D01*
X61406206Y-79780401D01*
X61414699Y-79775860D01*
X61414705Y-79775858D01*
X61558099Y-79680045D01*
X61680045Y-79558099D01*
X61775858Y-79414705D01*
X61841855Y-79255374D01*
X61875500Y-79086229D01*
X61875500Y-78913771D01*
X61841855Y-78744626D01*
X61775858Y-78585295D01*
X61680045Y-78441901D01*
X61558099Y-78319955D01*
X61414705Y-78224142D01*
X61414704Y-78224141D01*
X61414702Y-78224140D01*
X61406206Y-78219599D01*
X61331104Y-78157965D01*
X61285304Y-78072283D01*
X61275781Y-77975596D01*
X61303983Y-77882624D01*
X61365617Y-77807522D01*
X61406206Y-77780401D01*
X61414699Y-77775860D01*
X61414705Y-77775858D01*
X61558099Y-77680045D01*
X61680045Y-77558099D01*
X61775858Y-77414705D01*
X61841855Y-77255374D01*
X61875500Y-77086229D01*
X61875500Y-76913771D01*
X61841855Y-76744626D01*
X61775858Y-76585295D01*
X61680045Y-76441901D01*
X61558099Y-76319955D01*
X61414705Y-76224142D01*
X61414704Y-76224141D01*
X61414702Y-76224140D01*
X61406206Y-76219599D01*
X61331104Y-76157965D01*
X61285304Y-76072283D01*
X61275781Y-75975596D01*
X61303983Y-75882624D01*
X61365617Y-75807522D01*
X61406206Y-75780401D01*
X61414699Y-75775860D01*
X61414705Y-75775858D01*
X61558099Y-75680045D01*
X61680045Y-75558099D01*
X61775858Y-75414705D01*
X61796229Y-75365524D01*
X70061500Y-75365524D01*
X70061500Y-75510475D01*
X70099015Y-75650482D01*
X70099017Y-75650487D01*
X70171488Y-75776011D01*
X70171489Y-75776012D01*
X70171491Y-75776015D01*
X70273985Y-75878509D01*
X70399515Y-75950984D01*
X70539525Y-75988500D01*
X70684474Y-75988500D01*
X70684475Y-75988500D01*
X70824485Y-75950984D01*
X70950015Y-75878509D01*
X71052509Y-75776015D01*
X71124984Y-75650485D01*
X71162500Y-75510475D01*
X71162500Y-75365525D01*
X71124984Y-75225515D01*
X71052509Y-75099985D01*
X70950015Y-74997491D01*
X70950012Y-74997489D01*
X70950011Y-74997488D01*
X70824487Y-74925017D01*
X70824482Y-74925015D01*
X70684475Y-74887500D01*
X70539525Y-74887500D01*
X70399517Y-74925015D01*
X70399512Y-74925017D01*
X70273988Y-74997488D01*
X70171488Y-75099988D01*
X70099017Y-75225512D01*
X70099015Y-75225517D01*
X70061500Y-75365524D01*
X61796229Y-75365524D01*
X61841855Y-75255374D01*
X61875500Y-75086229D01*
X61875500Y-74913771D01*
X61841855Y-74744626D01*
X61775858Y-74585295D01*
X61680045Y-74441901D01*
X61558099Y-74319955D01*
X61414705Y-74224142D01*
X61414700Y-74224139D01*
X61255377Y-74158146D01*
X61255375Y-74158145D01*
X61255374Y-74158145D01*
X61086229Y-74124500D01*
X60913771Y-74124500D01*
X60744626Y-74158145D01*
X60744625Y-74158145D01*
X60744622Y-74158146D01*
X60585299Y-74224139D01*
X60585294Y-74224142D01*
X60441904Y-74319952D01*
X60319952Y-74441904D01*
X60224142Y-74585294D01*
X60219597Y-74593798D01*
X60157961Y-74668899D01*
X60072278Y-74714696D01*
X59975590Y-74724218D01*
X59882619Y-74696014D01*
X59807518Y-74634378D01*
X59780403Y-74593798D01*
X59775857Y-74585294D01*
X59680047Y-74441904D01*
X59680045Y-74441901D01*
X59558099Y-74319955D01*
X59414705Y-74224142D01*
X59414704Y-74224141D01*
X59414702Y-74224140D01*
X59406206Y-74219599D01*
X59331104Y-74157965D01*
X59285304Y-74072283D01*
X59275781Y-73975596D01*
X59303983Y-73882624D01*
X59365617Y-73807522D01*
X59406206Y-73780401D01*
X59414699Y-73775860D01*
X59414705Y-73775858D01*
X59558099Y-73680045D01*
X59680045Y-73558099D01*
X59775858Y-73414705D01*
X59841855Y-73255374D01*
X59875500Y-73086229D01*
X59875500Y-72913771D01*
X59841855Y-72744626D01*
X59775858Y-72585295D01*
X59680045Y-72441901D01*
X59558099Y-72319955D01*
X59414705Y-72224142D01*
X59414704Y-72224141D01*
X59414702Y-72224140D01*
X59406206Y-72219599D01*
X59331104Y-72157965D01*
X59285304Y-72072283D01*
X59275781Y-71975596D01*
X59303983Y-71882624D01*
X59365617Y-71807522D01*
X59406206Y-71780401D01*
X59414699Y-71775860D01*
X59414705Y-71775858D01*
X59558099Y-71680045D01*
X59680045Y-71558099D01*
X59775858Y-71414705D01*
X59775860Y-71414699D01*
X59780401Y-71406206D01*
X59842035Y-71331104D01*
X59927717Y-71285304D01*
X60024404Y-71275781D01*
X60117376Y-71303983D01*
X60192478Y-71365617D01*
X60219599Y-71406206D01*
X60224140Y-71414702D01*
X60224141Y-71414703D01*
X60224142Y-71414705D01*
X60319955Y-71558099D01*
X60441901Y-71680045D01*
X60585295Y-71775858D01*
X60585297Y-71775858D01*
X60585299Y-71775860D01*
X60661739Y-71807522D01*
X60744626Y-71841855D01*
X60913771Y-71875500D01*
X60913774Y-71875500D01*
X61086226Y-71875500D01*
X61086229Y-71875500D01*
X61255374Y-71841855D01*
X61414705Y-71775858D01*
X61558099Y-71680045D01*
X61680045Y-71558099D01*
X61681766Y-71555524D01*
X74379500Y-71555524D01*
X74379500Y-71700475D01*
X74417015Y-71840482D01*
X74417017Y-71840487D01*
X74489488Y-71966011D01*
X74489489Y-71966012D01*
X74489491Y-71966015D01*
X74591985Y-72068509D01*
X74591987Y-72068510D01*
X74591988Y-72068511D01*
X74654750Y-72104746D01*
X74717515Y-72140984D01*
X74857525Y-72178500D01*
X75002474Y-72178500D01*
X75002475Y-72178500D01*
X75142485Y-72140984D01*
X75268015Y-72068509D01*
X75370509Y-71966015D01*
X75442984Y-71840485D01*
X75480500Y-71700475D01*
X75480500Y-71555525D01*
X75442984Y-71415515D01*
X75370509Y-71289985D01*
X75268015Y-71187491D01*
X75268012Y-71187489D01*
X75268011Y-71187488D01*
X75142487Y-71115017D01*
X75142482Y-71115015D01*
X75002475Y-71077500D01*
X74857525Y-71077500D01*
X74717517Y-71115015D01*
X74717512Y-71115017D01*
X74591988Y-71187488D01*
X74489488Y-71289988D01*
X74417017Y-71415512D01*
X74417015Y-71415517D01*
X74379500Y-71555524D01*
X61681766Y-71555524D01*
X61775858Y-71414705D01*
X61779379Y-71406206D01*
X61796191Y-71365617D01*
X61841855Y-71255374D01*
X61875500Y-71086229D01*
X61875500Y-70913771D01*
X61841855Y-70744626D01*
X61775858Y-70585295D01*
X61680045Y-70441901D01*
X61558099Y-70319955D01*
X61414705Y-70224142D01*
X61414704Y-70224141D01*
X61414702Y-70224140D01*
X61406206Y-70219599D01*
X61331104Y-70157965D01*
X61285304Y-70072283D01*
X61275781Y-69975596D01*
X61303983Y-69882624D01*
X61365617Y-69807522D01*
X61406206Y-69780401D01*
X61414699Y-69775860D01*
X61414705Y-69775858D01*
X61558099Y-69680045D01*
X61680045Y-69558099D01*
X61775858Y-69414705D01*
X61841855Y-69255374D01*
X61875500Y-69086229D01*
X61875500Y-68913771D01*
X61841855Y-68744626D01*
X61775858Y-68585295D01*
X61680045Y-68441901D01*
X61558099Y-68319955D01*
X61505017Y-68284487D01*
X61414702Y-68224140D01*
X61406206Y-68219599D01*
X61390509Y-68206717D01*
X61372282Y-68197761D01*
X61353307Y-68176186D01*
X61331104Y-68157965D01*
X61321531Y-68140057D01*
X61308119Y-68124807D01*
X61298846Y-68097618D01*
X61285304Y-68072283D01*
X61283313Y-68052071D01*
X61276759Y-68032853D01*
X61278596Y-68004185D01*
X61278137Y-67999524D01*
X90127500Y-67999524D01*
X90127500Y-68144475D01*
X90165015Y-68284482D01*
X90165017Y-68284487D01*
X90237488Y-68410011D01*
X90237489Y-68410012D01*
X90237491Y-68410015D01*
X90339985Y-68512509D01*
X90465515Y-68584984D01*
X90605525Y-68622500D01*
X90750474Y-68622500D01*
X90750475Y-68622500D01*
X90890485Y-68584984D01*
X91016015Y-68512509D01*
X91118509Y-68410015D01*
X91190984Y-68284485D01*
X91228500Y-68144475D01*
X91228500Y-67999525D01*
X91190984Y-67859515D01*
X91142685Y-67775859D01*
X91118511Y-67733988D01*
X91118510Y-67733987D01*
X91118509Y-67733985D01*
X91016015Y-67631491D01*
X91016012Y-67631489D01*
X91016011Y-67631488D01*
X90890487Y-67559017D01*
X90890482Y-67559015D01*
X90750475Y-67521500D01*
X90605525Y-67521500D01*
X90465517Y-67559015D01*
X90465512Y-67559017D01*
X90339988Y-67631488D01*
X90237488Y-67733988D01*
X90165017Y-67859512D01*
X90165015Y-67859517D01*
X90127500Y-67999524D01*
X61278137Y-67999524D01*
X61275781Y-67975596D01*
X61281675Y-67956163D01*
X61282975Y-67935897D01*
X61295644Y-67910112D01*
X61303983Y-67882624D01*
X61316864Y-67866927D01*
X61325821Y-67848700D01*
X61345649Y-67831852D01*
X61365617Y-67807522D01*
X61398775Y-67784537D01*
X61411377Y-67777236D01*
X61414705Y-67775858D01*
X61558099Y-67680045D01*
X61680045Y-67558099D01*
X61775858Y-67414705D01*
X61841855Y-67255374D01*
X61875500Y-67086229D01*
X61875500Y-66913771D01*
X61841855Y-66744626D01*
X61775858Y-66585295D01*
X61680045Y-66441901D01*
X61558099Y-66319955D01*
X61414705Y-66224142D01*
X61414704Y-66224141D01*
X61414702Y-66224140D01*
X61406206Y-66219599D01*
X61331104Y-66157965D01*
X61285304Y-66072283D01*
X61275781Y-65975596D01*
X61303983Y-65882624D01*
X61365617Y-65807522D01*
X61406206Y-65780401D01*
X61414699Y-65775860D01*
X61414705Y-65775858D01*
X61558099Y-65680045D01*
X61680045Y-65558099D01*
X61775858Y-65414705D01*
X61841855Y-65255374D01*
X61875500Y-65086229D01*
X61875500Y-64913771D01*
X61841855Y-64744626D01*
X61775858Y-64585295D01*
X61680045Y-64441901D01*
X61558099Y-64319955D01*
X61414705Y-64224142D01*
X61414700Y-64224139D01*
X61255377Y-64158146D01*
X61255375Y-64158145D01*
X61255374Y-64158145D01*
X61086229Y-64124500D01*
X60913771Y-64124500D01*
X60744626Y-64158145D01*
X60744625Y-64158145D01*
X60744622Y-64158146D01*
X60585299Y-64224139D01*
X60585294Y-64224142D01*
X60441904Y-64319952D01*
X60319952Y-64441904D01*
X60224142Y-64585294D01*
X60219597Y-64593798D01*
X60157961Y-64668899D01*
X60072278Y-64714696D01*
X59975590Y-64724218D01*
X59882619Y-64696014D01*
X59807518Y-64634378D01*
X59780403Y-64593798D01*
X59775857Y-64585294D01*
X59680047Y-64441904D01*
X59680045Y-64441901D01*
X59558099Y-64319955D01*
X59414705Y-64224142D01*
X59414700Y-64224139D01*
X59255377Y-64158146D01*
X59255375Y-64158145D01*
X59255374Y-64158145D01*
X59086229Y-64124500D01*
X58913771Y-64124500D01*
X58744626Y-64158145D01*
X58744625Y-64158145D01*
X58744622Y-64158146D01*
X58585299Y-64224139D01*
X58585294Y-64224142D01*
X58441904Y-64319952D01*
X58319952Y-64441904D01*
X58224142Y-64585294D01*
X58219597Y-64593798D01*
X58157961Y-64668899D01*
X58072278Y-64714696D01*
X57975590Y-64724218D01*
X57882619Y-64696014D01*
X57807518Y-64634378D01*
X57780403Y-64593798D01*
X57775857Y-64585294D01*
X57680047Y-64441904D01*
X57680045Y-64441901D01*
X57558099Y-64319955D01*
X57414705Y-64224142D01*
X57414700Y-64224139D01*
X57255377Y-64158146D01*
X57255375Y-64158145D01*
X57255374Y-64158145D01*
X57086229Y-64124500D01*
X56913771Y-64124500D01*
X56744626Y-64158145D01*
X56744625Y-64158145D01*
X56744622Y-64158146D01*
X56585299Y-64224139D01*
X56585294Y-64224142D01*
X56441904Y-64319952D01*
X56319952Y-64441904D01*
X56224142Y-64585294D01*
X56219597Y-64593798D01*
X56157961Y-64668899D01*
X56072278Y-64714696D01*
X55975590Y-64724218D01*
X55882619Y-64696014D01*
X55807518Y-64634378D01*
X55780403Y-64593798D01*
X55775857Y-64585294D01*
X55680047Y-64441904D01*
X55680045Y-64441901D01*
X55558099Y-64319955D01*
X55414705Y-64224142D01*
X55414700Y-64224139D01*
X55255377Y-64158146D01*
X55255375Y-64158145D01*
X55255374Y-64158145D01*
X55086229Y-64124500D01*
X54913771Y-64124500D01*
X54744626Y-64158145D01*
X54744625Y-64158145D01*
X54744622Y-64158146D01*
X54585299Y-64224139D01*
X54585294Y-64224142D01*
X54441904Y-64319952D01*
X54319952Y-64441904D01*
X54224142Y-64585294D01*
X54224139Y-64585299D01*
X54158146Y-64744622D01*
X54158145Y-64744625D01*
X54158145Y-64744626D01*
X54124500Y-64913771D01*
X50220500Y-64913771D01*
X50220500Y-61649524D01*
X111463500Y-61649524D01*
X111463500Y-61794475D01*
X111501015Y-61934482D01*
X111501017Y-61934487D01*
X111573488Y-62060011D01*
X111573489Y-62060012D01*
X111573491Y-62060015D01*
X111675985Y-62162509D01*
X111801515Y-62234984D01*
X111941525Y-62272500D01*
X112086474Y-62272500D01*
X112086475Y-62272500D01*
X112226485Y-62234984D01*
X112352015Y-62162509D01*
X112454509Y-62060015D01*
X112526984Y-61934485D01*
X112564500Y-61794475D01*
X112564500Y-61649525D01*
X112526984Y-61509515D01*
X112454509Y-61383985D01*
X112352015Y-61281491D01*
X112352012Y-61281489D01*
X112352011Y-61281488D01*
X112226487Y-61209017D01*
X112226482Y-61209015D01*
X112086475Y-61171500D01*
X111941525Y-61171500D01*
X111801517Y-61209015D01*
X111801512Y-61209017D01*
X111675988Y-61281488D01*
X111573488Y-61383988D01*
X111501017Y-61509512D01*
X111501015Y-61509517D01*
X111463500Y-61649524D01*
X50220500Y-61649524D01*
X50220500Y-54102000D01*
X97171538Y-54102000D01*
X97171539Y-54102000D01*
X98949537Y-54102000D01*
X98949538Y-54102000D01*
X98949538Y-50800000D01*
X97171538Y-50800000D01*
X97171538Y-54102000D01*
X50220500Y-54102000D01*
X50220500Y-51348898D01*
X50221134Y-51331136D01*
X50230452Y-51200845D01*
X50236528Y-51115882D01*
X50241582Y-51080740D01*
X50285558Y-50878587D01*
X50295559Y-50844526D01*
X50367861Y-50650675D01*
X50382615Y-50618371D01*
X50481762Y-50436798D01*
X50500956Y-50406932D01*
X50624935Y-50241315D01*
X50648187Y-50214480D01*
X50794480Y-50068187D01*
X50821315Y-50044935D01*
X50986932Y-49920956D01*
X51016798Y-49901762D01*
X51198384Y-49802607D01*
X51230675Y-49787861D01*
X51424526Y-49715559D01*
X51458587Y-49705558D01*
X51660740Y-49661582D01*
X51695884Y-49656528D01*
X51898462Y-49642040D01*
X51911136Y-49641134D01*
X51928898Y-49640500D01*
X51967595Y-49640500D01*
X143757405Y-49640500D01*
X143796102Y-49640500D01*
X143813864Y-49641134D01*
G37*
%TD.AperFunction*%
%TD*%
M02*
