M48
; DRILL file {KiCad 9.0.4} date 2026-05-26T18:33:08-0300
; FORMAT={-:-/ absolute / metric / decimal}
; #@! TF.CreationDate,2026-05-26T18:33:08-03:00
; #@! TF.GenerationSoftware,Kicad,Pcbnew,9.0.4
; #@! TF.FileFunction,Plated,1,4,PTH
FMAT,2
METRIC
; #@! TA.AperFunction,Plated,PTH,ViaDrill
T1C0.300
; #@! TA.AperFunction,Plated,PTH,ComponentDrill
T2C0.900
; #@! TA.AperFunction,Plated,PTH,ComponentDrill
T3C3.200
%
G90
G05
T1
X63.246Y-93.726
X63.246Y-96.266
X63.246Y-98.806
X63.246Y-101.346
X63.246Y-103.378
X64.008Y-78.994
X64.008Y-81.534
X64.008Y-84.074
X64.008Y-86.614
X64.516Y-129.083
X64.516Y-131.623
X64.516Y-134.163
X64.516Y-136.703
X65.024Y-55.88
X65.024Y-58.42
X65.024Y-60.96
X65.024Y-63.5
X65.786Y-103.378
X66.04Y-70.612
X66.04Y-71.628
X66.294Y-108.204
X66.548Y-114.554
X68.326Y-103.378
X68.834Y-69.342
X68.834Y-70.612
X68.834Y-71.882
X69.088Y-78.994
X69.088Y-81.534
X69.088Y-84.074
X69.088Y-86.614
X69.088Y-106.934
X69.088Y-108.204
X69.088Y-109.474
X69.088Y-113.284
X69.088Y-114.554
X69.088Y-115.824
X69.469Y-98.933
X69.85Y-129.083
X69.85Y-131.623
X69.85Y-134.163
X69.85Y-136.703
X70.104Y-55.88
X70.104Y-58.42
X70.104Y-60.96
X70.104Y-63.5
X70.104Y-70.612
X70.358Y-108.204
X70.612Y-75.438
X70.612Y-122.555
X73.152Y-106.426
X74.524Y-99.252
X74.549Y-115.57
X74.93Y-71.628
X74.93Y-129.083
X74.93Y-131.623
X74.93Y-134.163
X74.93Y-136.703
X75.184Y-55.88
X75.184Y-58.42
X75.184Y-60.96
X75.184Y-63.5
X76.708Y-103.505
X76.962Y-79.248
X76.962Y-81.788
X76.962Y-84.328
X76.962Y-86.868
X77.533Y-106.883
X77.597Y-109.22
X77.597Y-111.379
X78.943Y-129.083
X78.943Y-131.623
X78.943Y-134.163
X78.943Y-136.703
X79.718Y-99.314
X79.718Y-100.076
X79.718Y-101.092
X79.718Y-101.854
X80.518Y-55.88
X80.518Y-58.42
X80.518Y-60.96
X80.518Y-63.5
X80.988Y-99.314
X80.988Y-100.076
X80.988Y-101.092
X80.988Y-101.854
X81.088Y-96.901
X81.585Y-104.902
X82.042Y-79.248
X82.042Y-81.788
X82.042Y-84.328
X82.042Y-86.868
X82.258Y-99.314
X82.258Y-100.076
X82.258Y-101.092
X82.258Y-101.854
X83.439Y-97.028
X84.074Y-103.759
X84.277Y-129.083
X84.277Y-131.623
X84.277Y-134.163
X84.277Y-136.703
X85.598Y-55.88
X85.598Y-58.42
X85.598Y-60.96
X85.598Y-63.5
X86.106Y-119.888
X86.868Y-95.123
X86.868Y-112.014
X86.995Y-104.902
X87.122Y-79.248
X87.122Y-81.788
X87.122Y-84.328
X87.122Y-86.868
X89.357Y-129.083
X89.357Y-131.623
X89.357Y-134.163
X89.357Y-136.703
X89.916Y-117.348
X90.678Y-68.072
X90.932Y-98.806
X90.932Y-102.362
X92.202Y-98.806
X92.202Y-102.362
X93.472Y-98.806
X93.472Y-102.362
X95.25Y-95.25
X95.25Y-96.52
X95.25Y-97.79
X95.25Y-99.06
X96.266Y-55.118
X96.266Y-56.388
X96.266Y-57.658
X96.266Y-58.928
X96.52Y-95.25
X96.52Y-96.52
X96.52Y-97.79
X96.52Y-99.06
X96.52Y-105.664
X96.52Y-108.204
X96.52Y-110.744
X96.52Y-113.284
X96.52Y-118.618
X96.52Y-120.904
X96.52Y-123.444
X96.52Y-125.984
X96.52Y-129.032
X96.52Y-131.826
X96.52Y-134.112
X96.52Y-136.906
X97.79Y-61.214
X97.79Y-95.25
X97.79Y-96.52
X97.79Y-97.79
X97.79Y-99.06
X97.79Y-100.076
X97.79Y-101.346
X97.917Y-122.428
X98.044Y-127.508
X98.298Y-63.5
X98.298Y-64.77
X98.298Y-66.04
X98.298Y-67.31
X98.552Y-71.12
X98.552Y-72.39
X98.552Y-73.66
X98.552Y-74.93
X98.552Y-77.724
X98.552Y-78.994
X98.552Y-80.264
X98.552Y-81.534
X98.552Y-82.804
X98.552Y-85.344
X98.552Y-86.614
X98.552Y-87.884
X98.552Y-89.154
X98.552Y-90.424
X98.552Y-91.694
X98.552Y-92.964
X98.552Y-94.234
X99.06Y-61.214
X99.06Y-100.076
X99.06Y-101.346
X99.06Y-105.664
X99.822Y-55.118
X99.822Y-56.388
X99.822Y-57.658
X99.822Y-58.928
X100.33Y-61.214
X100.33Y-100.076
X100.33Y-101.346
X101.6Y-105.664
X102.108Y-63.246
X102.108Y-64.516
X102.108Y-65.786
X102.108Y-67.056
X102.108Y-70.993
X102.108Y-72.263
X102.108Y-73.533
X102.108Y-74.803
X102.108Y-78.613
X102.108Y-79.883
X102.108Y-81.153
X102.108Y-82.423
X102.108Y-84.328
X102.108Y-86.36
X102.108Y-87.63
X102.108Y-89.789
X102.108Y-90.805
X102.108Y-92.964
X102.108Y-94.234
X102.489Y-96.139
X102.489Y-99.695
X102.87Y-113.538
X103.759Y-96.139
X103.759Y-99.695
X104.14Y-81.788
X104.14Y-105.664
X104.394Y-71.628
X104.394Y-74.168
X105.029Y-95.25
X105.029Y-100.076
X106.299Y-95.25
X106.299Y-100.076
X106.426Y-105.664
X107.442Y-71.882
X107.569Y-95.25
X107.569Y-100.076
X108.839Y-95.25
X108.839Y-100.076
X108.966Y-105.664
X109.728Y-82.804
X109.982Y-68.072
X109.982Y-71.882
X109.982Y-74.93
X109.982Y-79.248
X110.109Y-95.25
X110.109Y-100.076
X111.379Y-95.25
X111.379Y-100.076
X111.506Y-105.664
X112.014Y-61.722
X112.268Y-68.072
X112.268Y-76.454
X112.268Y-84.074
X112.522Y-95.25
X112.522Y-100.076
X113.792Y-95.25
X113.792Y-100.076
X114.046Y-105.664
X114.554Y-68.072
X114.554Y-71.882
X114.554Y-74.93
X114.554Y-79.248
X114.554Y-82.804
X114.808Y-96.52
X114.808Y-99.568
X116.078Y-87.757
X116.078Y-96.52
X116.078Y-99.568
X116.586Y-105.664
X117.348Y-96.52
X117.348Y-99.568
X118.618Y-96.52
X118.618Y-99.568
X119.126Y-105.664
X119.888Y-96.52
X119.888Y-99.568
X121.158Y-96.52
X121.158Y-99.568
X121.666Y-105.664
X122.301Y-96.52
X122.301Y-99.568
X123.571Y-96.52
X123.571Y-99.568
X124.206Y-105.664
X124.714Y-55.372
X124.714Y-57.912
X124.714Y-60.452
X124.714Y-62.992
X124.714Y-65.532
X124.714Y-68.072
X124.714Y-70.612
X124.714Y-73.152
X124.714Y-75.692
X124.714Y-78.232
X124.714Y-80.772
X124.714Y-83.312
X124.714Y-85.598
X124.714Y-88.138
X124.714Y-90.678
X124.714Y-93.218
X124.714Y-96.52
X124.714Y-99.568
X125.984Y-96.52
X125.984Y-99.568
X126.619Y-119.888
X126.746Y-105.664
X127.254Y-96.52
X127.254Y-99.568
X128.524Y-96.52
X128.524Y-99.568
X129.286Y-105.664
X129.794Y-55.372
X129.794Y-57.912
X129.794Y-60.452
X129.794Y-62.992
X129.794Y-65.532
X129.794Y-68.072
X129.794Y-70.612
X129.794Y-73.152
X129.794Y-75.692
X129.794Y-78.232
X129.794Y-80.772
X129.794Y-83.312
X129.794Y-85.598
X129.794Y-88.138
X129.794Y-90.678
X129.794Y-93.218
X129.794Y-96.52
X129.794Y-99.568
X131.064Y-96.52
X131.064Y-99.568
X131.826Y-105.664
X132.207Y-96.52
X132.207Y-99.568
X133.477Y-96.52
X133.477Y-99.568
X134.366Y-105.664
X134.747Y-96.52
X134.747Y-99.568
X134.874Y-55.372
X134.874Y-57.912
X134.874Y-60.452
X134.874Y-62.992
X134.874Y-65.532
X134.874Y-68.072
X134.874Y-70.612
X134.874Y-73.152
X134.874Y-75.692
X134.874Y-78.232
X134.874Y-80.772
X134.874Y-83.312
X134.874Y-85.598
X134.874Y-88.138
X134.874Y-90.678
X134.874Y-93.218
X136.017Y-96.52
X136.017Y-99.568
X136.906Y-105.664
X137.287Y-96.52
X137.287Y-99.568
X138.557Y-96.52
X138.557Y-99.568
X139.446Y-105.664
X139.7Y-65.532
X139.7Y-68.072
X139.7Y-70.612
X139.7Y-73.152
X139.7Y-75.692
X139.7Y-78.232
X139.7Y-80.772
X139.7Y-83.312
X139.7Y-85.852
X139.7Y-88.138
X139.7Y-90.678
X139.827Y-96.52
X139.827Y-99.568
X141.986Y-105.664
X144.526Y-105.664
T2
X55.0Y-65.0
X55.0Y-67.0
X55.0Y-69.0
X55.0Y-71.0
X55.0Y-73.0
X55.0Y-75.0
X55.0Y-77.0
X55.0Y-79.0
X55.0Y-81.0
X55.0Y-83.0
X55.0Y-85.0
X55.0Y-87.0
X55.0Y-89.0
X55.0Y-91.0
X55.0Y-93.0
X55.0Y-95.0
X55.0Y-97.0
X55.0Y-99.0
X55.0Y-101.0
X55.0Y-103.0
X55.0Y-105.0
X55.0Y-107.0
X55.0Y-109.0
X55.0Y-111.0
X55.0Y-113.0
X55.0Y-115.0
X55.0Y-117.0
X55.0Y-119.0
X55.0Y-121.0
X55.0Y-123.0
X57.0Y-65.0
X57.0Y-67.0
X57.0Y-69.0
X57.0Y-71.0
X57.0Y-73.0
X57.0Y-75.0
X57.0Y-77.0
X57.0Y-79.0
X57.0Y-81.0
X57.0Y-83.0
X57.0Y-85.0
X57.0Y-87.0
X57.0Y-89.0
X57.0Y-91.0
X57.0Y-93.0
X57.0Y-95.0
X57.0Y-97.0
X57.0Y-99.0
X57.0Y-101.0
X57.0Y-103.0
X57.0Y-105.0
X57.0Y-107.0
X57.0Y-109.0
X57.0Y-111.0
X57.0Y-113.0
X57.0Y-115.0
X57.0Y-117.0
X57.0Y-119.0
X57.0Y-121.0
X57.0Y-123.0
X59.0Y-65.0
X59.0Y-67.0
X59.0Y-69.0
X59.0Y-71.0
X59.0Y-73.0
X59.0Y-75.0
X59.0Y-77.0
X59.0Y-79.0
X59.0Y-81.0
X59.0Y-83.0
X59.0Y-85.0
X59.0Y-87.0
X59.0Y-89.0
X59.0Y-91.0
X59.0Y-93.0
X59.0Y-95.0
X59.0Y-97.0
X59.0Y-99.0
X59.0Y-101.0
X59.0Y-103.0
X59.0Y-105.0
X59.0Y-107.0
X59.0Y-109.0
X59.0Y-111.0
X59.0Y-113.0
X59.0Y-115.0
X59.0Y-117.0
X59.0Y-119.0
X59.0Y-121.0
X59.0Y-123.0
X61.0Y-65.0
X61.0Y-67.0
X61.0Y-69.0
X61.0Y-71.0
X61.0Y-73.0
X61.0Y-75.0
X61.0Y-77.0
X61.0Y-79.0
X61.0Y-81.0
X61.0Y-83.0
X61.0Y-85.0
X61.0Y-87.0
X61.0Y-89.0
X61.0Y-91.0
X61.0Y-93.0
X61.0Y-95.0
X61.0Y-97.0
X61.0Y-99.0
X61.0Y-101.0
X61.0Y-103.0
X61.0Y-105.0
X61.0Y-107.0
X61.0Y-109.0
X61.0Y-111.0
X61.0Y-113.0
X61.0Y-115.0
X61.0Y-117.0
X61.0Y-119.0
X61.0Y-121.0
X61.0Y-123.0
T3
X55.0Y-56.96
X55.0Y-130.62
X140.725Y-54.42
X140.725Y-134.43
M30
