%TF.GenerationSoftware,KiCad,Pcbnew,9.0.4*%
%TF.CreationDate,2026-05-26T18:32:56-03:00*%
%TF.ProjectId,PCI-104-Template,5043492d-3130-4342-9d54-656d706c6174,A*%
%TF.SameCoordinates,Original*%
%TF.FileFunction,Soldermask,Bot*%
%TF.FilePolarity,Negative*%
%FSLAX46Y46*%
G04 Gerber Fmt 4.6, Leading zero omitted, Abs format (unit mm)*
G04 Created by KiCad (PCBNEW 9.0.4) date 2026-05-26 18:32:56*
%MOMM*%
%LPD*%
G01*
G04 APERTURE LIST*
G04 Aperture macros list*
%AMRoundRect*
0 Rectangle with rounded corners*
0 $1 Rounding radius*
0 $2 $3 $4 $5 $6 $7 $8 $9 X,Y pos of 4 corners*
0 Add a 4 corners polygon primitive as box body*
4,1,4,$2,$3,$4,$5,$6,$7,$8,$9,$2,$3,0*
0 Add four circle primitives for the rounded corners*
1,1,$1+$1,$2,$3*
1,1,$1+$1,$4,$5*
1,1,$1+$1,$6,$7*
1,1,$1+$1,$8,$9*
0 Add four rect primitives between the rounded corners*
20,1,$1+$1,$2,$3,$4,$5,0*
20,1,$1+$1,$4,$5,$6,$7,0*
20,1,$1+$1,$6,$7,$8,$9,0*
20,1,$1+$1,$8,$9,$2,$3,0*%
G04 Aperture macros list end*
%ADD10C,3.600000*%
%ADD11C,6.400000*%
%ADD12O,1.350000X1.350000*%
%ADD13RoundRect,0.250000X1.600000X-0.425000X1.600000X0.425000X-1.600000X0.425000X-1.600000X-0.425000X0*%
%ADD14RoundRect,0.250000X0.425000X1.600000X-0.425000X1.600000X-0.425000X-1.600000X0.425000X-1.600000X0*%
%ADD15R,1.350000X1.350000*%
G04 APERTURE END LIST*
D10*
%TO.C,H4*%
X140725000Y-134430000D03*
D11*
X140725000Y-134430000D03*
%TD*%
D10*
%TO.C,H2*%
X140725000Y-54420000D03*
D11*
X140725000Y-54420000D03*
%TD*%
D12*
%TO.C,J1*%
X61000000Y-123000000D03*
X61000000Y-121000000D03*
X61000000Y-119000000D03*
X61000000Y-117000000D03*
X61000000Y-115000000D03*
X61000000Y-113000000D03*
X61000000Y-111000000D03*
X61000000Y-109000000D03*
X61000000Y-107000000D03*
X61000000Y-105000000D03*
X61000000Y-103000000D03*
X61000000Y-101000000D03*
X61000000Y-99000000D03*
X61000000Y-97000000D03*
X61000000Y-95000000D03*
X61000000Y-93000000D03*
X61000000Y-91000000D03*
X61000000Y-89000000D03*
X61000000Y-87000000D03*
X61000000Y-85000000D03*
X61000000Y-83000000D03*
X61000000Y-81000000D03*
X61000000Y-79000000D03*
X61000000Y-77000000D03*
X61000000Y-75000000D03*
X61000000Y-73000000D03*
X61000000Y-71000000D03*
X61000000Y-69000000D03*
X61000000Y-67000000D03*
X61000000Y-65000000D03*
X59000000Y-123000000D03*
X59000000Y-121000000D03*
X59000000Y-119000000D03*
X59000000Y-117000000D03*
X59000000Y-115000000D03*
X59000000Y-113000000D03*
X59000000Y-111000000D03*
X59000000Y-109000000D03*
X59000000Y-107000000D03*
X59000000Y-105000000D03*
X59000000Y-103000000D03*
X59000000Y-101000000D03*
X59000000Y-99000000D03*
X59000000Y-97000000D03*
X59000000Y-95000000D03*
X59000000Y-93000000D03*
X59000000Y-91000000D03*
X59000000Y-89000000D03*
X59000000Y-87000000D03*
X59000000Y-85000000D03*
X59000000Y-83000000D03*
X59000000Y-81000000D03*
X59000000Y-79000000D03*
X59000000Y-77000000D03*
X59000000Y-75000000D03*
X59000000Y-73000000D03*
X59000000Y-71000000D03*
X59000000Y-69000000D03*
X59000000Y-67000000D03*
X59000000Y-65000000D03*
%TD*%
D13*
%TO.C,J3*%
X142153500Y-95269800D03*
X142153500Y-100919800D03*
%TD*%
D10*
%TO.C,H1*%
X55000000Y-56960000D03*
D11*
X55000000Y-56960000D03*
%TD*%
D10*
%TO.C,H3*%
X55000000Y-130620000D03*
D11*
X55000000Y-130620000D03*
%TD*%
D14*
%TO.C,J4*%
X95219000Y-52664500D03*
X100869000Y-52664500D03*
%TD*%
D12*
%TO.C,J2*%
X57000000Y-123000000D03*
X57000000Y-121000000D03*
X57000000Y-119000000D03*
X57000000Y-117000000D03*
X57000000Y-115000000D03*
X57000000Y-113000000D03*
X57000000Y-111000000D03*
X57000000Y-109000000D03*
X57000000Y-107000000D03*
X57000000Y-105000000D03*
X57000000Y-103000000D03*
X57000000Y-101000000D03*
X57000000Y-99000000D03*
X57000000Y-97000000D03*
X57000000Y-95000000D03*
X57000000Y-93000000D03*
X57000000Y-91000000D03*
X57000000Y-89000000D03*
X57000000Y-87000000D03*
X57000000Y-85000000D03*
X57000000Y-83000000D03*
X57000000Y-81000000D03*
X57000000Y-79000000D03*
X57000000Y-77000000D03*
X57000000Y-75000000D03*
X57000000Y-73000000D03*
X57000000Y-71000000D03*
X57000000Y-69000000D03*
X57000000Y-67000000D03*
X57000000Y-65000000D03*
D15*
X55000000Y-123000000D03*
D12*
X55000000Y-121000000D03*
X55000000Y-119000000D03*
X55000000Y-117000000D03*
X55000000Y-115000000D03*
X55000000Y-113000000D03*
X55000000Y-111000000D03*
X55000000Y-109000000D03*
X55000000Y-107000000D03*
X55000000Y-105000000D03*
X55000000Y-103000000D03*
X55000000Y-101000000D03*
X55000000Y-99000000D03*
X55000000Y-97000000D03*
X55000000Y-95000000D03*
X55000000Y-93000000D03*
X55000000Y-91000000D03*
X55000000Y-89000000D03*
X55000000Y-87000000D03*
X55000000Y-85000000D03*
X55000000Y-83000000D03*
X55000000Y-81000000D03*
X55000000Y-79000000D03*
X55000000Y-77000000D03*
X55000000Y-75000000D03*
X55000000Y-73000000D03*
X55000000Y-71000000D03*
X55000000Y-69000000D03*
X55000000Y-67000000D03*
X55000000Y-65000000D03*
%TD*%
M02*
