%TF.GenerationSoftware,KiCad,Pcbnew,9.0.4*%
%TF.CreationDate,2026-05-26T18:32:56-03:00*%
%TF.ProjectId,PCI-104-Template,5043492d-3130-4342-9d54-656d706c6174,A*%
%TF.SameCoordinates,Original*%
%TF.FileFunction,Soldermask,Top*%
%TF.FilePolarity,Negative*%
%FSLAX46Y46*%
G04 Gerber Fmt 4.6, Leading zero omitted, Abs format (unit mm)*
G04 Created by KiCad (PCBNEW 9.0.4) date 2026-05-26 18:32:56*
%MOMM*%
%LPD*%
G01*
G04 APERTURE LIST*
G04 Aperture macros list*
%AMRoundRect*
0 Rectangle with rounded corners*
0 $1 Rounding radius*
0 $2 $3 $4 $5 $6 $7 $8 $9 X,Y pos of 4 corners*
0 Add a 4 corners polygon primitive as box body*
4,1,4,$2,$3,$4,$5,$6,$7,$8,$9,$2,$3,0*
0 Add four circle primitives for the rounded corners*
1,1,$1+$1,$2,$3*
1,1,$1+$1,$4,$5*
1,1,$1+$1,$6,$7*
1,1,$1+$1,$8,$9*
0 Add four rect primitives between the rounded corners*
20,1,$1+$1,$2,$3,$4,$5,0*
20,1,$1+$1,$4,$5,$6,$7,0*
20,1,$1+$1,$6,$7,$8,$9,0*
20,1,$1+$1,$8,$9,$2,$3,0*%
G04 Aperture macros list end*
%ADD10RoundRect,0.250000X0.250000X0.475000X-0.250000X0.475000X-0.250000X-0.475000X0.250000X-0.475000X0*%
%ADD11RoundRect,0.140000X-0.140000X-0.170000X0.140000X-0.170000X0.140000X0.170000X-0.140000X0.170000X0*%
%ADD12C,3.600000*%
%ADD13C,6.400000*%
%ADD14RoundRect,0.218750X0.218750X0.256250X-0.218750X0.256250X-0.218750X-0.256250X0.218750X-0.256250X0*%
%ADD15O,1.350000X1.350000*%
%ADD16RoundRect,0.140000X0.140000X0.170000X-0.140000X0.170000X-0.140000X-0.170000X0.140000X-0.170000X0*%
%ADD17RoundRect,0.225000X0.250000X-0.225000X0.250000X0.225000X-0.250000X0.225000X-0.250000X-0.225000X0*%
%ADD18RoundRect,0.140000X0.170000X-0.140000X0.170000X0.140000X-0.170000X0.140000X-0.170000X-0.140000X0*%
%ADD19RoundRect,0.200000X-0.275000X0.200000X-0.275000X-0.200000X0.275000X-0.200000X0.275000X0.200000X0*%
%ADD20RoundRect,0.225000X-0.225000X-0.250000X0.225000X-0.250000X0.225000X0.250000X-0.225000X0.250000X0*%
%ADD21RoundRect,0.200000X0.200000X0.275000X-0.200000X0.275000X-0.200000X-0.275000X0.200000X-0.275000X0*%
%ADD22RoundRect,0.147500X-0.147500X-0.172500X0.147500X-0.172500X0.147500X0.172500X-0.147500X0.172500X0*%
%ADD23R,1.250000X0.600000*%
%ADD24RoundRect,0.225000X0.225000X0.250000X-0.225000X0.250000X-0.225000X-0.250000X0.225000X-0.250000X0*%
%ADD25RoundRect,0.147500X0.172500X-0.147500X0.172500X0.147500X-0.172500X0.147500X-0.172500X-0.147500X0*%
%ADD26RoundRect,0.200000X-0.200000X-0.275000X0.200000X-0.275000X0.200000X0.275000X-0.200000X0.275000X0*%
%ADD27RoundRect,0.140000X-0.170000X0.140000X-0.170000X-0.140000X0.170000X-0.140000X0.170000X0.140000X0*%
%ADD28R,0.800000X0.900000*%
%ADD29R,1.270000X0.760000*%
%ADD30R,0.400000X1.000000*%
%ADD31RoundRect,0.147500X-0.172500X0.147500X-0.172500X-0.147500X0.172500X-0.147500X0.172500X0.147500X0*%
%ADD32R,0.300000X0.800000*%
%ADD33R,0.800000X0.300000*%
%ADD34R,3.250000X3.250000*%
%ADD35RoundRect,0.150000X0.587500X0.150000X-0.587500X0.150000X-0.587500X-0.150000X0.587500X-0.150000X0*%
%ADD36RoundRect,0.250000X1.350000X-0.385000X1.350000X0.385000X-1.350000X0.385000X-1.350000X-0.385000X0*%
%ADD37RoundRect,0.250000X1.600000X-0.425000X1.600000X0.425000X-1.600000X0.425000X-1.600000X-0.425000X0*%
%ADD38RoundRect,0.147500X0.147500X0.172500X-0.147500X0.172500X-0.147500X-0.172500X0.147500X-0.172500X0*%
%ADD39R,2.540000X1.650000*%
%ADD40RoundRect,0.218750X-0.218750X-0.256250X0.218750X-0.256250X0.218750X0.256250X-0.218750X0.256250X0*%
%ADD41RoundRect,0.200000X0.275000X-0.200000X0.275000X0.200000X-0.275000X0.200000X-0.275000X-0.200000X0*%
%ADD42RoundRect,0.250000X0.385000X1.350000X-0.385000X1.350000X-0.385000X-1.350000X0.385000X-1.350000X0*%
%ADD43RoundRect,0.250000X0.425000X1.600000X-0.425000X1.600000X-0.425000X-1.600000X0.425000X-1.600000X0*%
%ADD44RoundRect,0.250000X1.000000X0.650000X-1.000000X0.650000X-1.000000X-0.650000X1.000000X-0.650000X0*%
%ADD45RoundRect,0.525400X0.900400X0.525400X-0.900400X0.525400X-0.900400X-0.525400X0.900400X-0.525400X0*%
%ADD46C,1.700000*%
%ADD47RoundRect,0.275000X-0.275000X0.975000X-0.275000X-0.975000X0.275000X-0.975000X0.275000X0.975000X0*%
%ADD48R,1.350000X1.350000*%
G04 APERTURE END LIST*
D10*
%TO.C,C23*%
X89850000Y-110014000D03*
X87950000Y-110014000D03*
%TD*%
%TO.C,C53*%
X117409000Y-113792000D03*
X115509000Y-113792000D03*
%TD*%
D11*
%TO.C,C6*%
X75720000Y-102362000D03*
X76680000Y-102362000D03*
%TD*%
D12*
%TO.C,H4*%
X140725000Y-134430000D03*
D13*
X140725000Y-134430000D03*
%TD*%
D12*
%TO.C,H2*%
X140725000Y-54420000D03*
D13*
X140725000Y-54420000D03*
%TD*%
D14*
%TO.C,D4*%
X127025500Y-124968000D03*
X125450500Y-124968000D03*
%TD*%
D15*
%TO.C,J1*%
X61000000Y-123000000D03*
X61000000Y-121000000D03*
X61000000Y-119000000D03*
X61000000Y-117000000D03*
X61000000Y-115000000D03*
X61000000Y-113000000D03*
X61000000Y-111000000D03*
X61000000Y-109000000D03*
X61000000Y-107000000D03*
X61000000Y-105000000D03*
X61000000Y-103000000D03*
X61000000Y-101000000D03*
X61000000Y-99000000D03*
X61000000Y-97000000D03*
X61000000Y-95000000D03*
X61000000Y-93000000D03*
X61000000Y-91000000D03*
X61000000Y-89000000D03*
X61000000Y-87000000D03*
X61000000Y-85000000D03*
X61000000Y-83000000D03*
X61000000Y-81000000D03*
X61000000Y-79000000D03*
X61000000Y-77000000D03*
X61000000Y-75000000D03*
X61000000Y-73000000D03*
X61000000Y-71000000D03*
X61000000Y-69000000D03*
X61000000Y-67000000D03*
X61000000Y-65000000D03*
X59000000Y-123000000D03*
X59000000Y-121000000D03*
X59000000Y-119000000D03*
X59000000Y-117000000D03*
X59000000Y-115000000D03*
X59000000Y-113000000D03*
X59000000Y-111000000D03*
X59000000Y-109000000D03*
X59000000Y-107000000D03*
X59000000Y-105000000D03*
X59000000Y-103000000D03*
X59000000Y-101000000D03*
X59000000Y-99000000D03*
X59000000Y-97000000D03*
X59000000Y-95000000D03*
X59000000Y-93000000D03*
X59000000Y-91000000D03*
X59000000Y-89000000D03*
X59000000Y-87000000D03*
X59000000Y-85000000D03*
X59000000Y-83000000D03*
X59000000Y-81000000D03*
X59000000Y-79000000D03*
X59000000Y-77000000D03*
X59000000Y-75000000D03*
X59000000Y-73000000D03*
X59000000Y-71000000D03*
X59000000Y-69000000D03*
X59000000Y-67000000D03*
X59000000Y-65000000D03*
%TD*%
D16*
%TO.C,C41*%
X103604000Y-91694000D03*
X102644000Y-91694000D03*
%TD*%
D17*
%TO.C,C24*%
X73152000Y-117107000D03*
X73152000Y-115557000D03*
%TD*%
D18*
%TO.C,C33*%
X93726000Y-62710000D03*
X93726000Y-61750000D03*
%TD*%
D19*
%TO.C,R17*%
X90678000Y-64199000D03*
X90678000Y-65849000D03*
%TD*%
D17*
%TO.C,C47*%
X100330000Y-88913000D03*
X100330000Y-87363000D03*
%TD*%
D20*
%TO.C,C22*%
X84061000Y-114046000D03*
X85611000Y-114046000D03*
%TD*%
D21*
%TO.C,R19*%
X108204000Y-68072000D03*
X106554000Y-68072000D03*
%TD*%
D18*
%TO.C,C12*%
X82677000Y-106723000D03*
X82677000Y-105763000D03*
%TD*%
D22*
%TO.C,L10*%
X116101000Y-85344000D03*
X117071000Y-85344000D03*
%TD*%
D23*
%TO.C,IC5*%
X67838000Y-107254000D03*
X67838000Y-108204000D03*
X67838000Y-109154000D03*
X70338000Y-109154000D03*
X70338000Y-107254000D03*
%TD*%
D24*
%TO.C,C32*%
X113551000Y-59690000D03*
X112001000Y-59690000D03*
%TD*%
D11*
%TO.C,C5*%
X75720000Y-100076000D03*
X76680000Y-100076000D03*
%TD*%
D22*
%TO.C,L2*%
X116101000Y-70104000D03*
X117071000Y-70104000D03*
%TD*%
D18*
%TO.C,C29*%
X114046000Y-99032000D03*
X114046000Y-98072000D03*
%TD*%
D19*
%TO.C,R27*%
X119126000Y-71819000D03*
X119126000Y-73469000D03*
%TD*%
D17*
%TO.C,C43*%
X112268000Y-79261000D03*
X112268000Y-77711000D03*
%TD*%
D24*
%TO.C,C21*%
X85611000Y-107950000D03*
X84061000Y-107950000D03*
%TD*%
D25*
%TO.C,L5*%
X89916000Y-99164000D03*
X89916000Y-98194000D03*
%TD*%
D17*
%TO.C,C30*%
X100330000Y-66307000D03*
X100330000Y-64757000D03*
%TD*%
D26*
%TO.C,R7*%
X75883000Y-110363000D03*
X77533000Y-110363000D03*
%TD*%
D27*
%TO.C,C10*%
X76454000Y-96068000D03*
X76454000Y-97028000D03*
%TD*%
D28*
%TO.C,Y1*%
X66676000Y-98897000D03*
X66676000Y-100747000D03*
X68126000Y-100747000D03*
X68126000Y-98897000D03*
%TD*%
D20*
%TO.C,C48*%
X94475000Y-86360000D03*
X96025000Y-86360000D03*
%TD*%
D29*
%TO.C,U2*%
X105539000Y-62230000D03*
X105539000Y-59690000D03*
X108329000Y-59690000D03*
X108329000Y-62230000D03*
%TD*%
D14*
%TO.C,D3*%
X127025500Y-130048000D03*
X125450500Y-130048000D03*
%TD*%
D16*
%TO.C,C40*%
X103604000Y-88900000D03*
X102644000Y-88900000D03*
%TD*%
D30*
%TO.C,IC6*%
X99710000Y-60214000D03*
X99060000Y-60214000D03*
X98410000Y-60214000D03*
X98410000Y-62214000D03*
X99060000Y-62214000D03*
X99710000Y-62214000D03*
%TD*%
D18*
%TO.C,C7*%
X85344000Y-103830000D03*
X85344000Y-102870000D03*
%TD*%
D17*
%TO.C,C46*%
X112268000Y-86881000D03*
X112268000Y-85331000D03*
%TD*%
D11*
%TO.C,C25*%
X65687000Y-96012000D03*
X66647000Y-96012000D03*
%TD*%
D31*
%TO.C,L7*%
X111506000Y-97101800D03*
X111506000Y-98071800D03*
%TD*%
D32*
%TO.C,U1*%
X79238000Y-103022000D03*
X79738000Y-103022000D03*
X80238000Y-103022000D03*
X80738000Y-103022000D03*
X81238000Y-103022000D03*
X81738000Y-103022000D03*
X82238000Y-103022000D03*
X82738000Y-103022000D03*
D33*
X83388000Y-102372000D03*
X83388000Y-101872000D03*
X83388000Y-101372000D03*
X83388000Y-100872000D03*
X83388000Y-100372000D03*
X83388000Y-99872000D03*
X83388000Y-99372000D03*
X83388000Y-98872000D03*
D32*
X82738000Y-98222000D03*
X82238000Y-98222000D03*
X81738000Y-98222000D03*
X81238000Y-98222000D03*
X80738000Y-98222000D03*
X80238000Y-98222000D03*
X79738000Y-98222000D03*
X79238000Y-98222000D03*
D33*
X78588000Y-98872000D03*
X78588000Y-99372000D03*
X78588000Y-99872000D03*
X78588000Y-100372000D03*
X78588000Y-100872000D03*
X78588000Y-101372000D03*
X78588000Y-101872000D03*
X78588000Y-102372000D03*
D34*
X80988000Y-100622000D03*
%TD*%
D23*
%TO.C,IC2*%
X67584000Y-69662000D03*
X67584000Y-70612000D03*
X67584000Y-71562000D03*
X70084000Y-71562000D03*
X70084000Y-69662000D03*
%TD*%
D26*
%TO.C,R12*%
X131001000Y-124968000D03*
X132651000Y-124968000D03*
%TD*%
%TO.C,R29*%
X106617000Y-85344000D03*
X108267000Y-85344000D03*
%TD*%
D27*
%TO.C,C20*%
X89916000Y-95913000D03*
X89916000Y-96873000D03*
%TD*%
D25*
%TO.C,L4*%
X89916000Y-105260000D03*
X89916000Y-104290000D03*
%TD*%
D26*
%TO.C,R20*%
X94425000Y-69088000D03*
X96075000Y-69088000D03*
%TD*%
D25*
%TO.C,L6*%
X107492800Y-98071800D03*
X107492800Y-97101800D03*
%TD*%
D21*
%TO.C,R25*%
X108204000Y-75692000D03*
X106554000Y-75692000D03*
%TD*%
D35*
%TO.C,Q2*%
X100251500Y-77658000D03*
X100251500Y-75758000D03*
X98376500Y-76708000D03*
%TD*%
D21*
%TO.C,R30*%
X108267000Y-83312000D03*
X106617000Y-83312000D03*
%TD*%
D31*
%TO.C,L3*%
X88519000Y-95908000D03*
X88519000Y-96878000D03*
%TD*%
D11*
%TO.C,C14*%
X89944000Y-100584000D03*
X90904000Y-100584000D03*
%TD*%
D17*
%TO.C,C8*%
X65024000Y-117107000D03*
X65024000Y-115557000D03*
%TD*%
D31*
%TO.C,L8*%
X100330000Y-90701000D03*
X100330000Y-91671000D03*
%TD*%
D19*
%TO.C,R14*%
X81407000Y-89091000D03*
X81407000Y-90741000D03*
%TD*%
D26*
%TO.C,R10*%
X106554000Y-66040000D03*
X108204000Y-66040000D03*
%TD*%
D17*
%TO.C,C4*%
X73406000Y-73165000D03*
X73406000Y-71615000D03*
%TD*%
D14*
%TO.C,D2*%
X127025500Y-134874000D03*
X125450500Y-134874000D03*
%TD*%
D36*
%TO.C,J3*%
X142403500Y-98094800D03*
D37*
X142153500Y-95269800D03*
X142153500Y-100919800D03*
%TD*%
D26*
%TO.C,R6*%
X75883000Y-112522000D03*
X77533000Y-112522000D03*
%TD*%
D12*
%TO.C,H1*%
X55000000Y-56960000D03*
D13*
X55000000Y-56960000D03*
%TD*%
D16*
%TO.C,C51*%
X119606000Y-82550000D03*
X118646000Y-82550000D03*
%TD*%
D21*
%TO.C,R3*%
X101409000Y-119888000D03*
X99759000Y-119888000D03*
%TD*%
D26*
%TO.C,R22*%
X106617000Y-70104000D03*
X108267000Y-70104000D03*
%TD*%
D38*
%TO.C,L1*%
X94719000Y-60198000D03*
X93749000Y-60198000D03*
%TD*%
D23*
%TO.C,IC1*%
X67838000Y-113604000D03*
X67838000Y-114554000D03*
X67838000Y-115504000D03*
X70338000Y-115504000D03*
X70338000Y-113604000D03*
%TD*%
D17*
%TO.C,C44*%
X100330000Y-81293000D03*
X100330000Y-79743000D03*
%TD*%
D26*
%TO.C,R21*%
X90932000Y-71120000D03*
X92582000Y-71120000D03*
%TD*%
D27*
%TO.C,C35*%
X78010000Y-95052000D03*
X78010000Y-96012000D03*
%TD*%
D17*
%TO.C,C37*%
X112268000Y-71641000D03*
X112268000Y-70091000D03*
%TD*%
D27*
%TO.C,C11*%
X81788000Y-95080000D03*
X81788000Y-96040000D03*
%TD*%
D26*
%TO.C,R4*%
X131001000Y-134874000D03*
X132651000Y-134874000D03*
%TD*%
%TO.C,R23*%
X106554000Y-73660000D03*
X108204000Y-73660000D03*
%TD*%
D17*
%TO.C,C2*%
X64516000Y-71133000D03*
X64516000Y-69583000D03*
%TD*%
D18*
%TO.C,C16*%
X81153000Y-106751000D03*
X81153000Y-105791000D03*
%TD*%
D27*
%TO.C,C18*%
X86106000Y-96040000D03*
X86106000Y-97000000D03*
%TD*%
D39*
%TO.C,IC3*%
X100330000Y-100584000D03*
X100330000Y-98044000D03*
X100330000Y-95504000D03*
X95250000Y-95504000D03*
X95250000Y-98044000D03*
X95250000Y-100584000D03*
%TD*%
D40*
%TO.C,D1*%
X71348500Y-98806000D03*
X72923500Y-98806000D03*
%TD*%
D26*
%TO.C,R26*%
X94425000Y-76708000D03*
X96075000Y-76708000D03*
%TD*%
%TO.C,R9*%
X75883000Y-105867200D03*
X77533000Y-105867200D03*
%TD*%
D16*
%TO.C,C50*%
X119606000Y-83820000D03*
X118646000Y-83820000D03*
%TD*%
D26*
%TO.C,R8*%
X75883000Y-108204000D03*
X77533000Y-108204000D03*
%TD*%
D16*
%TO.C,C54*%
X117602000Y-115570000D03*
X116642000Y-115570000D03*
%TD*%
D41*
%TO.C,R18*%
X67564000Y-75501000D03*
X67564000Y-73851000D03*
%TD*%
D26*
%TO.C,R13*%
X84011000Y-112014000D03*
X85661000Y-112014000D03*
%TD*%
D19*
%TO.C,R11*%
X71374000Y-95187000D03*
X71374000Y-96837000D03*
%TD*%
D17*
%TO.C,C9*%
X65024000Y-110744000D03*
X65024000Y-109194000D03*
%TD*%
D12*
%TO.C,H3*%
X55000000Y-130620000D03*
D13*
X55000000Y-130620000D03*
%TD*%
D42*
%TO.C,J4*%
X98044000Y-52414500D03*
D43*
X95219000Y-52664500D03*
X100869000Y-52664500D03*
%TD*%
D26*
%TO.C,R31*%
X94425000Y-84328000D03*
X96075000Y-84328000D03*
%TD*%
D27*
%TO.C,C28*%
X109474000Y-96040000D03*
X109474000Y-97000000D03*
%TD*%
D26*
%TO.C,R24*%
X106617000Y-77724000D03*
X108267000Y-77724000D03*
%TD*%
D27*
%TO.C,C13*%
X89916000Y-102009000D03*
X89916000Y-102969000D03*
%TD*%
D20*
%TO.C,C19*%
X65011000Y-94234000D03*
X66561000Y-94234000D03*
%TD*%
D44*
%TO.C,D5*%
X113887000Y-110363000D03*
X109887000Y-110363000D03*
%TD*%
D16*
%TO.C,C52*%
X119606000Y-74930000D03*
X118646000Y-74930000D03*
%TD*%
D20*
%TO.C,C38*%
X94475000Y-71120000D03*
X96025000Y-71120000D03*
%TD*%
D27*
%TO.C,C34*%
X74930000Y-96068000D03*
X74930000Y-97028000D03*
%TD*%
D26*
%TO.C,R28*%
X106617000Y-81280000D03*
X108267000Y-81280000D03*
%TD*%
D45*
%TO.C,U3*%
X120763994Y-134955600D03*
X120763994Y-132415600D03*
X120763994Y-129875600D03*
X120763994Y-127335600D03*
X120763994Y-124795600D03*
X120763994Y-122255600D03*
X120763994Y-119715600D03*
X104598994Y-119715600D03*
X104598994Y-122255600D03*
X104598994Y-124795600D03*
X104598994Y-127335600D03*
X104598994Y-129875600D03*
X104598994Y-132415600D03*
X104598994Y-134955600D03*
D46*
X113851994Y-135713900D03*
X111311994Y-135713900D03*
X113851994Y-133173900D03*
X111311994Y-133173900D03*
D47*
X113851994Y-118695900D03*
X111311994Y-118695900D03*
%TD*%
D21*
%TO.C,R15*%
X85661000Y-109982000D03*
X84011000Y-109982000D03*
%TD*%
D24*
%TO.C,C42*%
X119393000Y-98094800D03*
X117843000Y-98094800D03*
%TD*%
D35*
%TO.C,Q3*%
X100251500Y-85278000D03*
X100251500Y-83378000D03*
X98376500Y-84328000D03*
%TD*%
D41*
%TO.C,R16*%
X93726000Y-65849000D03*
X93726000Y-64199000D03*
%TD*%
D21*
%TO.C,R1*%
X101409000Y-122428000D03*
X99759000Y-122428000D03*
%TD*%
D27*
%TO.C,C26*%
X83312000Y-95052000D03*
X83312000Y-96012000D03*
%TD*%
D19*
%TO.C,R32*%
X119126000Y-79439000D03*
X119126000Y-81089000D03*
%TD*%
D18*
%TO.C,C15*%
X86868000Y-103830000D03*
X86868000Y-102870000D03*
%TD*%
D16*
%TO.C,C49*%
X119606000Y-76200000D03*
X118646000Y-76200000D03*
%TD*%
D15*
%TO.C,J2*%
X57000000Y-123000000D03*
X57000000Y-121000000D03*
X57000000Y-119000000D03*
X57000000Y-117000000D03*
X57000000Y-115000000D03*
X57000000Y-113000000D03*
X57000000Y-111000000D03*
X57000000Y-109000000D03*
X57000000Y-107000000D03*
X57000000Y-105000000D03*
X57000000Y-103000000D03*
X57000000Y-101000000D03*
X57000000Y-99000000D03*
X57000000Y-97000000D03*
X57000000Y-95000000D03*
X57000000Y-93000000D03*
X57000000Y-91000000D03*
X57000000Y-89000000D03*
X57000000Y-87000000D03*
X57000000Y-85000000D03*
X57000000Y-83000000D03*
X57000000Y-81000000D03*
X57000000Y-79000000D03*
X57000000Y-77000000D03*
X57000000Y-75000000D03*
X57000000Y-73000000D03*
X57000000Y-71000000D03*
X57000000Y-69000000D03*
X57000000Y-67000000D03*
X57000000Y-65000000D03*
D48*
X55000000Y-123000000D03*
D15*
X55000000Y-121000000D03*
X55000000Y-119000000D03*
X55000000Y-117000000D03*
X55000000Y-115000000D03*
X55000000Y-113000000D03*
X55000000Y-111000000D03*
X55000000Y-109000000D03*
X55000000Y-107000000D03*
X55000000Y-105000000D03*
X55000000Y-103000000D03*
X55000000Y-101000000D03*
X55000000Y-99000000D03*
X55000000Y-97000000D03*
X55000000Y-95000000D03*
X55000000Y-93000000D03*
X55000000Y-91000000D03*
X55000000Y-89000000D03*
X55000000Y-87000000D03*
X55000000Y-85000000D03*
X55000000Y-83000000D03*
X55000000Y-81000000D03*
X55000000Y-79000000D03*
X55000000Y-77000000D03*
X55000000Y-75000000D03*
X55000000Y-73000000D03*
X55000000Y-71000000D03*
X55000000Y-69000000D03*
X55000000Y-67000000D03*
X55000000Y-65000000D03*
%TD*%
D22*
%TO.C,L9*%
X116101000Y-77724000D03*
X117071000Y-77724000D03*
%TD*%
D26*
%TO.C,R5*%
X131001000Y-130048000D03*
X132651000Y-130048000D03*
%TD*%
D24*
%TO.C,C3*%
X72911000Y-100838000D03*
X71361000Y-100838000D03*
%TD*%
D27*
%TO.C,C36*%
X79502000Y-95052000D03*
X79502000Y-96012000D03*
%TD*%
D17*
%TO.C,C31*%
X98044000Y-57671000D03*
X98044000Y-56121000D03*
%TD*%
%TO.C,C39*%
X100330000Y-73673000D03*
X100330000Y-72123000D03*
%TD*%
D18*
%TO.C,C27*%
X104902000Y-99032000D03*
X104902000Y-98072000D03*
%TD*%
D35*
%TO.C,Q1*%
X100251500Y-70038000D03*
X100251500Y-68138000D03*
X98376500Y-69088000D03*
%TD*%
D27*
%TO.C,C17*%
X84707000Y-96012000D03*
X84707000Y-96972000D03*
%TD*%
D20*
%TO.C,C45*%
X94475000Y-78740000D03*
X96025000Y-78740000D03*
%TD*%
D17*
%TO.C,C1*%
X73152000Y-108979000D03*
X73152000Y-107429000D03*
%TD*%
D21*
%TO.C,R2*%
X101409000Y-127508000D03*
X99759000Y-127508000D03*
%TD*%
M02*
